<?xml version="1.0" encoding="utf-8"?>
<!-- Generator: Adobe Illustrator 25.4.1, SVG Export Plug-In . SVG Version: 6.00 Build 0)  -->
<svg version="1.1" id="Layer_1" xmlns="http://www.w3.org/2000/svg" xmlns:xlink="http://www.w3.org/1999/xlink" x="0px" y="0px"
	 viewBox="0 0 252.24 152.05" style="enable-background:new 0 0 252.24 152.05;" xml:space="preserve">
<style type="text/css">
	.st0{fill:#123854;}
</style>
<g>
	<path class="st0" d="M177.53,47.71c-3.85,3.84-6.24,9.2-6.24,15.08c0,5.87,2.39,11.23,6.24,15.08c3.85,3.85,9.2,6.23,15.08,6.23
		c5.88,0,11.23-2.38,15.08-6.23c3.86-3.85,6.24-9.21,6.24-15.08c0-5.88-2.38-11.24-6.24-15.08c-3.85-3.85-9.2-6.24-15.08-6.24
		C186.74,41.47,181.39,43.86,177.53,47.71z M208.06,62.8c0,4.27-1.72,8.12-4.52,10.92c-2.8,2.8-6.65,4.51-10.92,4.51
		c-4.27,0-8.11-1.71-10.92-4.51c-2.8-2.8-4.52-6.65-4.52-10.92c0-4.28,1.72-8.11,4.52-10.92c2.81-2.79,6.65-4.51,10.92-4.51
		c4.27,0,8.12,1.72,10.92,4.51C206.34,54.68,208.06,58.51,208.06,62.8z"/>
	<path class="st0" d="M228.8,110.16c-3.03-6.37-8.06-11.72-14.32-15.49c-6.27-3.76-13.79-5.94-21.86-5.94
		c-10.52,0-20.12,3.71-27.21,9.82c-3.6-5.97-8.77-11.05-14.97-14.77c-7.36-4.42-16.2-6.99-25.68-6.99c-12.64,0-24.14,4.56-32.52,12
		c-2.46,2.19-4.65,4.63-6.52,7.29c-1.74-1.53-3.62-2.91-5.64-4.11c-6.27-3.76-13.8-5.95-21.87-5.95c-10.75,0-20.54,3.87-27.68,10.23
		c-3.56,3.17-6.48,6.97-8.49,11.22c-2.03,4.24-3.15,8.95-3.15,13.87v25.04H2.9c-1.62,0-2.94,1.33-2.94,2.93
		c0,1.64,1.32,2.95,2.94,2.95h153.33l0,0c0.01,0,0.01,0,0.01,0h21.92l0,0h0.01h28.91c0,0,0,0,0.01,0c0,0,0,0,0.01,0h21.91
		c0,0,0,0,0.01,0l0,0h20.24c1.64,0,2.94-1.31,2.94-2.95c0-1.6-1.31-2.93-2.94-2.93h-17.3v-22.36
		C231.95,119.11,230.83,114.41,228.8,110.16z M75.62,146.38v-15.43c0-1.63-1.32-2.94-2.94-2.94c-1.62,0-2.95,1.31-2.95,2.94v15.43
		H46.7v-15.43c0-1.63-1.32-2.94-2.94-2.94c-1.62,0-2.95,1.31-2.95,2.94v15.43H24.76v-25.04c0-4.04,0.91-7.85,2.57-11.35
		c2.49-5.23,6.7-9.76,12.05-12.97c5.35-3.21,11.83-5.11,18.82-5.11c9.35,0,17.75,3.38,23.79,8.73c0.22,0.19,0.42,0.4,0.64,0.61
		c-0.11,0.22-0.24,0.46-0.35,0.69c-2.37,4.98-3.68,10.48-3.68,16.22v28.22H75.62z M144.88,146.38v-16.8c0-1.62-1.32-2.94-2.95-2.94
		c-1.62,0-2.94,1.32-2.94,2.94v16.8h-28.47v-16.8c0-1.62-1.32-2.94-2.94-2.94c-1.63,0-2.94,1.32-2.94,2.94v16.8H84.48v-28.22
		c0-4.85,1.1-9.46,3.1-13.7c3.01-6.34,8.08-11.79,14.52-15.65c6.43-3.86,14.23-6.13,22.65-6.13c11.23-0.01,21.34,4.05,28.6,10.5
		c3.64,3.24,6.55,7.07,8.56,11.28c2.01,4.23,3.12,8.85,3.12,13.7v28.22H144.88z M210.03,146.38v-12.74c0-1.63-1.32-2.96-2.94-2.96
		c-1.63,0-2.94,1.33-2.94,2.96v12.74H181.1v-12.74c0-1.63-1.32-2.96-2.95-2.96c-1.61,0-2.94,1.33-2.94,2.96v12.74h-4.29v-28.22
		c0-4.96-0.99-9.75-2.79-14.16c1.69-1.6,3.59-3.05,5.66-4.28c5.34-3.23,11.83-5.11,18.83-5.11c9.34,0,17.75,3.37,23.78,8.73
		c3.01,2.69,5.43,5.86,7.09,9.36c1.67,3.5,2.58,7.32,2.58,11.33v22.36H210.03z"/>
	<path class="st0" d="M43.13,45.02c-3.85,3.85-6.25,9.2-6.25,15.07c0,5.88,2.4,11.24,6.25,15.09c3.85,3.84,9.2,6.23,15.07,6.23
		c5.89,0,11.24-2.39,15.09-6.23c3.85-3.85,6.25-9.21,6.25-15.09c0-5.87-2.4-11.22-6.25-15.07c-3.85-3.86-9.19-6.27-15.09-6.27
		C52.33,38.75,46.98,41.16,43.13,45.02z M73.65,60.1c0,4.28-1.72,8.11-4.52,10.91c-2.81,2.8-6.64,4.53-10.93,4.53
		c-4.27,0-8.11-1.73-10.92-4.53c-2.8-2.8-4.52-6.63-4.52-10.91c0-4.27,1.72-8.1,4.52-10.92c2.81-2.8,6.65-4.51,10.92-4.51
		c4.28,0,8.12,1.71,10.93,4.51C71.93,51.99,73.65,55.83,73.65,60.1z"/>
	<path class="st0" d="M150.3,34.84l0.02-6.53l14.46-6.23c1.08-0.47,1.78-1.54,1.78-2.71c0-1.18-0.71-2.23-1.79-2.71l-18.2-7.78
		c-0.66-1.2-2.04-1.77-3.32-1.43l-16.36-7c-0.74-0.32-1.58-0.32-2.33,0L86.94,16.66c-1.09,0.47-1.78,1.54-1.78,2.73
		c0,1.16,0.7,2.22,1.78,2.69l14.42,6.19l-0.02,6.56c0,0.52,0.14,1.02,0.41,1.47c-1.14,2.83-1.77,5.93-1.77,9.16
		c0,6.82,2.78,13.04,7.27,17.52c4.47,4.48,10.68,7.25,17.51,7.25c6.84,0,13.04-2.77,17.52-7.25c4.48-4.48,7.27-10.7,7.26-17.52
		c0-2.73-0.45-5.35-1.27-7.82l0.26-0.11C149.59,37.07,150.29,36,150.3,34.84z M95.55,19.36l30.18-13.02l10.55,4.52l-11.74,5.86
		c-1.45,0.73-2.04,2.5-1.31,3.95c0.73,1.46,2.49,2.05,3.95,1.31l16.19-8.1l12.79,5.49l-30.18,13.01L95.55,19.36z M124.83,38.3
		c0.74,0.31,1.58,0.31,2.32,0l17.28-7.46l-0.01,2.05l-18.53,8l-18.65-8v-2.12L124.83,38.3z M143.65,45.45
		c-0.01,5.23-2.11,9.92-5.54,13.36c-3.43,3.41-8.13,5.53-13.36,5.53c-5.23,0-9.93-2.11-13.36-5.53c-3.41-3.44-5.53-8.13-5.53-13.36
		c0-2.2,0.38-4.32,1.07-6.3l17.8,7.63c0.74,0.31,1.58,0.31,2.33,0l15.78-6.8C143.36,41.71,143.65,43.55,143.65,45.45z"/>
</g>
</svg>
