<?xml version="1.0" encoding="utf-8"?>
<!-- Generator: Adobe Illustrator 25.4.1, SVG Export Plug-In . SVG Version: 6.00 Build 0)  -->
<svg version="1.1" id="Layer_1" xmlns="http://www.w3.org/2000/svg" xmlns:xlink="http://www.w3.org/1999/xlink" x="0px" y="0px"
	 viewBox="0 0 204.25 189.51" style="enable-background:new 0 0 204.25 189.51;" xml:space="preserve">
<style type="text/css">
	.st0{fill:#123854;}
</style>
<g>
	<path class="st0" d="M1.22,189.61c0.83,0.39,1.82,0.25,2.52-0.35l21.13-17.99h137.04c0.62,0,1.22-0.25,1.66-0.68
		c0.44-0.45,0.68-1.05,0.68-1.67V90c1.4-0.58,2.65-1.43,3.7-2.47c2.09-2.1,3.39-5,3.39-8.19c0-1.02-0.15-2.01-0.39-2.96l32.93-66.7
		c0.57-1.14,0.1-2.56-1.06-3.13c-1.16-0.57-2.57-0.1-3.15,1.07l-31.49,63.78c-0.08-0.08-0.15-0.16-0.22-0.25
		c-1.05-1.04-2.3-1.89-3.7-2.48V46.88c0-0.62-0.24-1.22-0.68-1.65c-0.44-0.43-1.05-0.68-1.66-0.68h-41.62
		c-0.03-10.51-2.04-18.62-5.14-24.84c-2.35-4.69-5.34-8.29-8.51-11.01c-4.76-4.08-9.91-6.16-14.01-7.24
		c-4.1-1.07-7.18-1.14-7.96-1.14c-0.03,0-0.05,0-0.08,0c-0.02,0-0.05,0-0.09,0c-0.68,0-3.19,0.05-6.63,0.83
		c-2.58,0.56-5.68,1.54-8.88,3.21c-4.82,2.49-9.91,6.58-13.73,13.1c-3.8,6.46-6.33,15.26-6.36,27.09H2.21
		c-0.62,0-1.22,0.25-1.65,0.68c-0.44,0.43-0.69,1.04-0.69,1.65v122.04v18.56C-0.14,188.39,0.4,189.23,1.22,189.61z M159.56,166.57
		h-47.25V90.91h46.21l-0.24,0.49c-0.57,1.17-0.1,2.58,1.07,3.14c0.07,0.04,0.14,0.06,0.21,0.09V166.57z M164.62,74.46
		c0.49,0.47,0.9,1.04,1.22,1.63l-4.94,10.02c-0.37,0.06-0.75,0.1-1.14,0.1H109.9c-0.68,0-1.31,0.28-1.76,0.8
		c-0.44,0.5-0.65,1.17-0.57,1.83l0.05,0.35v77.73l-0.89-0.36H59.08v-14.81v-4.01v-8.24v-3.99v-1.03c0-1.29-1.05-2.35-2.34-2.35
		c-1.29,0-2.35,1.05-2.35,2.35v1.03v3.99v12.25c0,1.91-0.77,3.61-2.01,4.87c-1.26,1.25-2.96,2.01-4.88,2.02
		c-1.91-0.01-3.61-0.77-4.87-2.02c-1.25-1.25-2.01-2.96-2.01-4.87v-12.25v-5.02v-25.43c0-5.03,1.14-9.8,3.22-14.15
		c3.11-6.55,8.33-12.16,14.96-16.15c6.62-3.97,14.64-6.31,23.29-6.31h77.68C161.67,72.44,163.38,73.21,164.62,74.46z M4.55,168.91
		V49.23H49c0.21,3.98,0.65,8.28,1.4,12.93c0.21,1.28,1.42,2.14,2.69,1.94c1.16-0.19,1.97-1.19,1.96-2.32c0-0.13,0-0.24-0.02-0.37
		c-1.01-6.2-1.45-11.7-1.45-16.6c0-10.06,1.89-17.49,4.65-23.01c2.06-4.13,4.63-7.21,7.35-9.54c4.07-3.5,8.54-5.31,12.14-6.26
		c3.6-0.94,6.31-0.99,6.78-0.99h0.04h0.01h0.07h0.01h0.04c0.41,0,2.6,0.04,5.61,0.71c2.26,0.5,4.97,1.36,7.75,2.79
		c4.17,2.17,8.5,5.62,11.84,11.3c3.34,5.69,5.72,13.66,5.72,24.99c0,4.89-0.44,10.4-1.45,16.6c-0.02,0.13-0.02,0.25-0.02,0.37
		c0,1.14,0.8,2.13,1.96,2.32c1.28,0.21,2.48-0.66,2.69-1.94c0.76-4.65,1.21-8.95,1.4-12.93h39.39v18.52H82.09
		c-12.67,0.01-24.17,4.56-32.53,12.01c-4.19,3.72-7.59,8.17-9.96,13.12c-2.35,4.96-3.66,10.44-3.66,16.18v25.43v5.02v12.25
		c0,3.18,1.29,6.09,3.39,8.19c2.08,2.09,4.99,3.38,8.18,3.38c2.58,0,4.97-0.85,6.89-2.28v5.51H24c-0.56,0-1.09,0.2-1.51,0.56
		L4.55,182.4V168.91z"/>
	<path class="st0" d="M71.62,57.87c3.76,2.36,8.23,3.73,13,3.73c6.31,0,12.08-2.38,16.41-6.32c4.34-3.91,7.27-9.37,7.93-15.51
		c0-0.03,0-0.06,0-0.06c0.02-0.09,0.02-0.16,0.02-0.22c-0.02-0.09-0.02-0.16-0.02-0.24c-0.01-0.07-0.02-0.15-0.04-0.21
		c-0.02-0.07-0.03-0.15-0.06-0.22c-0.01-0.06-0.04-0.13-0.07-0.19c-0.03-0.07-0.06-0.13-0.1-0.21c-0.04-0.06-0.07-0.12-0.1-0.18
		c-0.04-0.06-0.09-0.12-0.13-0.19c-0.04-0.04-0.09-0.1-0.12-0.16c-0.06-0.05-0.12-0.1-0.18-0.16c-0.04-0.04-0.1-0.09-0.15-0.13
		c-0.07-0.06-0.15-0.1-0.23-0.14c-0.05-0.03-0.1-0.06-0.15-0.07c-0.13-0.07-0.28-0.12-0.42-0.16c-4.11-1.04-7.35-2.54-9.91-4.27
		c-2.56-1.74-4.48-3.7-5.92-5.69l0,0l0,0c-2.19-3.02-3.3-6.13-3.85-8.47c-0.28-1.17-0.41-2.16-0.48-2.84
		c-0.04-0.33-0.05-0.59-0.06-0.77c-0.01-0.07-0.01-0.14-0.01-0.18v-0.04l0,0l0,0l0,0c0-1.3-1.05-2.35-2.34-2.35
		c-1.3,0-2.34,1.05-2.34,2.35c0,0.17,0,2.09,0.67,4.9c0.59,2.52,1.72,5.74,3.86,9.03c-0.05,0.2-0.11,0.38-0.15,0.59
		c-0.1,0.54-0.22,1.12-0.36,1.77c-0.26,1.11-0.64,2.37-1.3,3.67c-0.49,0.98-1.16,1.99-2.07,2.98c-1.38,1.48-3.32,2.95-6.25,4.19
		c-2.92,1.23-6.82,2.22-12.01,2.64c-0.78,0.06-1.48,0.51-1.86,1.2c-0.38,0.68-0.39,1.51-0.04,2.2
		C64.79,52.14,67.87,55.49,71.62,57.87z M80.41,45.55c2.8-1.43,4.9-3.16,6.44-4.97c2.09-2.46,3.13-5.02,3.7-7.07
		c1.19,1.18,2.56,2.3,4.1,3.35c2.57,1.72,5.66,3.23,9.31,4.35c-0.87,4.16-3.05,7.84-6.08,10.6c-3.53,3.18-8.16,5.09-13.27,5.1
		c-3.87-0.01-7.45-1.11-10.5-3.02c-2.06-1.3-3.85-2.95-5.31-4.88C73.63,48.29,77.42,47.09,80.41,45.55z"/>
</g>
</svg>
