<?xml version="1.0" encoding="utf-8"?>
<!-- Generator: Adobe Illustrator 25.4.1, SVG Export Plug-In . SVG Version: 6.00 Build 0)  -->
<svg version="1.1" id="Layer_1" xmlns="http://www.w3.org/2000/svg" xmlns:xlink="http://www.w3.org/1999/xlink" x="0px" y="0px"
	 viewBox="0 0 187.13 221.79" style="enable-background:new 0 0 187.13 221.79;" xml:space="preserve">
<style type="text/css">
	.st0{fill:#0A263F;stroke:#0A263F;stroke-miterlimit:10;}
	.st1{fill:#0A263F;stroke:#0A263F;stroke-width:5;stroke-linecap:round;stroke-linejoin:round;stroke-miterlimit:10;}
	.st2{fill:#0A263F;stroke:#0A263F;stroke-width:3;stroke-linecap:round;stroke-linejoin:round;stroke-miterlimit:10;}
</style>
<g>
	<g>
		<path class="st0" d="M184.81,124.86c0.94,0,1.8-0.52,2.16-1.3c0.35-0.78,0.15-1.69-0.52-2.28L96.28,41.45
			c-0.89-0.79-2.33-0.81-3.25-0.01l-92.32,79.9c-0.69,0.59-0.9,1.51-0.55,2.29c0.36,0.79,1.22,1.31,2.17,1.31l14.06-0.06v93.93H3.56
			c-1.3,0-2.33,0.93-2.33,2.09c0,1.15,1.04,2.09,2.33,2.09h15.17h153.76h11.09c1.29,0,2.33-0.94,2.33-2.09
			c0-1.15-1.04-2.09-2.33-2.09h-8.76v-93.94H184.81z M172.49,120.67c-0.61,0-1.21,0.22-1.64,0.62c-0.43,0.39-0.69,0.92-0.69,1.47
			v96.04H21.05v-96.04c0-0.55-0.24-1.08-0.69-1.48c-0.43-0.4-1.02-0.61-1.65-0.61l-10.58,0.05l86.5-74.87l84.49,74.82H172.49z"/>
		<path class="st0" d="M94.52,138.06c6.02,0,11.49-2.2,15.43-5.76c3.94-3.54,6.39-8.46,6.39-13.87c0-5.42-2.45-10.34-6.39-13.88
			c-3.94-3.54-9.41-5.74-15.43-5.74c-6.02,0-11.49,2.2-15.43,5.74c-3.95,3.54-6.39,8.46-6.39,13.88c0,5.42,2.44,10.34,6.39,13.87
			C83.03,135.86,88.5,138.06,94.52,138.06z M82.52,107.63c3.07-2.75,7.3-4.46,12-4.47c4.69,0.01,8.91,1.72,11.99,4.47
			c3.07,2.76,4.97,6.57,4.97,10.79c0,4.22-1.9,8.02-4.97,10.79c-3.09,2.76-7.3,4.46-11.99,4.47c-4.69-0.01-8.93-1.71-12-4.47
			c-3.08-2.77-4.97-6.57-4.97-10.79C77.55,114.2,79.44,110.39,82.52,107.63z"/>
	</g>
	<polyline class="st1" points="94.63,43.05 94.63,1.19 125.86,10.61 94.63,23.52 	"/>
	<polyline class="st2" points="88.19,122.84 94.63,118.43 94.63,108.98 	"/>
	<rect x="72.92" y="191.32" class="st2" width="21.6" height="30.36"/>
	<rect x="94.63" y="191.32" class="st2" width="21.71" height="30.36"/>
</g>
</svg>
