<?xml version="1.0" encoding="utf-8"?>
<!-- Generator: Adobe Illustrator 25.4.1, SVG Export Plug-In . SVG Version: 6.00 Build 0)  -->
<svg version="1.1" id="Layer_1" xmlns="http://www.w3.org/2000/svg" xmlns:xlink="http://www.w3.org/1999/xlink" x="0px" y="0px"
	 viewBox="0 0 547.71 355.52" style="enable-background:new 0 0 547.71 355.52;" xml:space="preserve">
<style type="text/css">
	.st0{opacity:0.2;}
	.st1{fill:#8FC3DF;}
	.st2{fill:#7FA1D3;}
	.st3{fill:#E9F7FE;}
	.st4{fill:#547EBC;}
	.st5{fill:#F0C319;}
	.st6{fill:#FEE78F;}
	.st7{fill:#62A0C2;}
	.st8{fill:#BDE0F2;}
	.st9{fill:#3664A7;}
	.st10{fill:#FDD4B6;}
	.st11{fill:#B5762A;}
	.st12{fill:#F09E20;}
	.st13{fill:#FEC666;}
	.st14{fill:#806A5B;}
	.st15{fill:#FFCE7D;}
	.st16{fill:#CDAA90;}
	.st17{fill:#F3F3F3;}
	.st18{fill:#FEE065;}
</style>
<g>
	<g class="st0">
		<g>
			<ellipse class="st1" cx="273.99" cy="337.25" rx="272.1" ry="18.66"/>
		</g>
	</g>
	<g>
		<g>
			<g>
				<path class="st2" d="M418.7,338.52H246.07c-9.19,0-16.64-7.49-16.64-16.74V17.13c0-9.24,7.45-16.74,16.64-16.74H418.7
					c9.19,0,16.64,7.49,16.64,16.74v304.65C435.34,331.02,427.89,338.52,418.7,338.52z"/>
				<rect x="252.31" y="35.12" class="st3" width="160.15" height="254.02"/>
				<path class="st4" d="M361.27,22.57H303.5c-2.2,0-3.98-1.78-3.98-3.98v0c0-2.2,1.78-3.98,3.98-3.98h57.77
					c2.2,0,3.98,1.78,3.98,3.98v0C365.25,20.79,363.47,22.57,361.27,22.57z"/>
				<path class="st4" d="M350.43,324.29h-36.51c-4.39,0-7.95-3.56-7.95-7.95l0,0c0-4.39,3.56-7.95,7.95-7.95h36.51
					c4.39,0,7.95,3.56,7.95,7.95l0,0C358.38,320.73,354.82,324.29,350.43,324.29z"/>
			</g>
			<g>
				<g>
					<g>
						<g>
							<path class="st5" d="M282.33,223.38h106.56c2.71,0,4.91-2.33,4.91-5.2v-20.3c0-2.87-2.2-5.2-4.91-5.2H282.33
								c-2.71,0-4.91,2.33-4.91,5.2v20.3C277.42,221.05,279.62,223.38,282.33,223.38z"/>
						</g>
					</g>
					<g>
						<g>
							
								<rect x="374.3" y="192.67" transform="matrix(-1 -1.224647e-16 1.224647e-16 -1 751.7174 416.0514)" class="st6" width="3.11" height="30.71"/>
						</g>
					</g>
					<g>
						<g>
							
								<rect x="367.76" y="192.67" transform="matrix(-1 -1.224647e-16 1.224647e-16 -1 738.6246 416.0514)" class="st6" width="3.11" height="30.71"/>
						</g>
					</g>
					<g>
						<g>
							
								<rect x="361.21" y="192.67" transform="matrix(-1 -1.224647e-16 1.224647e-16 -1 725.5317 416.0514)" class="st6" width="3.11" height="30.71"/>
						</g>
					</g>
				</g>
				<g>
					<g>
						<g>
							<path class="st3" d="M276.76,188.08h100.2c4.74,0,8.57-3.84,8.57-8.57v-8.9c0-4.74-3.84-8.57-8.57-8.57h-100.2V188.08z"/>
						</g>
					</g>
					<g>
						<g>
							<path class="st7" d="M381.65,192.41H276.01c-2.38,0-4.31-1.94-4.31-4.34c0-2.4,1.93-4.34,4.31-4.34h105.21v-17.37H276.01
								c-2.38,0-4.31-1.94-4.31-4.34s1.93-4.34,4.31-4.34h105.63c4.52,0,8.2,3.7,8.2,8.25v18.22
								C389.85,188.71,386.17,192.41,381.65,192.41z"/>
						</g>
					</g>
					<g>
						<g>
							
								<rect x="276.76" y="169.41" transform="matrix(-1 -1.224647e-16 1.224647e-16 -1 657.7617 342.2756)" class="st8" width="104.24" height="3.46"/>
						</g>
					</g>
					<g>
						<g>
							
								<rect x="276.76" y="176.93" transform="matrix(-1 -1.224647e-16 1.224647e-16 -1 657.7617 357.3315)" class="st8" width="104.24" height="3.46"/>
						</g>
					</g>
				</g>
				<g>
					<g>
						<g>
							<path class="st3" d="M379.71,127.91h-80.94c-4.61,0-8.64,2.27-10.84,5.66c-0.68,1.05-1.19,2.21-1.48,3.44
								c-0.19,0.79-0.29,1.62-0.29,2.46c0,0.5,0.03,0.99,0.1,1.48c0.17,1.22,0.55,2.37,1.1,3.44c2.02,3.92,6.38,6.64,11.41,6.64
								h80.65c-1.84-2.26-2.98-4.49-3.62-6.64c-0.34-1.17-0.53-2.32-0.6-3.44c-0.08-1.36,0.02-2.68,0.26-3.94
								c0.23-1.21,0.58-2.36,1.01-3.44C377.36,131.35,378.57,129.43,379.71,127.91z"/>
						</g>
					</g>
					<g>
						<g>
							<g>
								<path class="st9" d="M383.05,124.22h-84.28c-9.19,0-16.64,6.83-16.64,15.25c0,4.21,1.86,8.02,4.87,10.78
									c3.01,2.76,7.17,4.47,11.77,4.47h84.28c-1.43-1.23-2.63-2.46-3.63-3.69h-80.65c-5.04,0-9.39-2.72-11.41-6.64
									c-0.55-1.07-0.93-2.23-1.1-3.44c-0.07-0.48-0.1-0.98-0.1-1.48c0-0.84,0.1-1.67,0.29-2.46c0.29-1.23,0.8-2.39,1.48-3.44
									c2.2-3.38,6.24-5.66,10.84-5.66h80.94C381.46,125.59,383.05,124.22,383.05,124.22z"/>
							</g>
						</g>
						<g>
							<g>
								<path class="st9" d="M287,150.25c-3.01-2.76-4.87-6.57-4.87-10.78c0-8.42,7.45-15.25,16.64-15.25h84.28v-3.69h-84.28
									c-11.4,0-20.67,8.5-20.67,18.94c0,10.44,9.27,18.94,20.67,18.94h84.28v-3.69h-84.28C294.18,154.72,290.02,153.01,287,150.25
									z"/>
							</g>
						</g>
					</g>
					<g>
						<g>
							<path class="st2" d="M375.8,144.39c-0.34-1.17-0.53-2.32-0.6-3.44h-88.94c0.17,1.22,0.55,2.37,1.1,3.44H375.8z"/>
						</g>
					</g>
					<g>
						<g>
							<path class="st2" d="M376.48,133.57h-88.55c-0.68,1.05-1.19,2.21-1.48,3.44h89.02C375.69,135.8,376.05,134.65,376.48,133.57z
								"/>
						</g>
					</g>
					<polygon class="st4" points="320.96,166.88 310.45,158.57 299.94,166.88 299.94,137.92 320.96,137.92 					"/>
				</g>
				<g>
					<g>
						<g>
							<path class="st1" d="M386.46,288.91H279.9c-2.71,0-4.91-2.33-4.91-5.2v-20.3c0-2.87,2.2-5.2,4.91-5.2h106.56
								c2.71,0,4.91,2.33,4.91,5.2v20.3C391.37,286.58,389.17,288.91,386.46,288.91z"/>
						</g>
					</g>
					<g>
						<g>
							<rect x="291.37" y="258.2" class="st3" width="3.11" height="30.71"/>
						</g>
					</g>
					<g>
						<g>
							<rect x="297.92" y="258.2" class="st3" width="3.11" height="30.71"/>
						</g>
					</g>
					<g>
						<g>
							<rect x="304.47" y="258.2" class="st3" width="3.11" height="30.71"/>
						</g>
					</g>
				</g>
				<g>
					<g>
						<g>
							<path class="st3" d="M378,253.61H277.8c-4.74,0-8.57-3.84-8.57-8.57v-8.9c0-4.74,3.84-8.57,8.57-8.57H378V253.61z"/>
						</g>
					</g>
					<g>
						<g>
							<path class="st9" d="M273.12,257.95h105.63c2.38,0,4.31-1.94,4.31-4.34c0-2.4-1.93-4.34-4.31-4.34H273.54V231.9h105.21
								c2.38,0,4.31-1.94,4.31-4.34s-1.93-4.34-4.31-4.34H273.12c-4.52,0-8.2,3.7-8.2,8.25v18.22
								C264.91,254.24,268.59,257.95,273.12,257.95z"/>
						</g>
					</g>
					<g>
						<g>
							<rect x="273.76" y="234.94" class="st2" width="104.24" height="3.46"/>
						</g>
					</g>
					<g>
						<g>
							<rect x="273.76" y="242.47" class="st2" width="104.24" height="3.46"/>
						</g>
					</g>
				</g>
			</g>
			<g>
				<g>
					
						<rect x="381.68" y="76.12" transform="matrix(1 -5.222357e-03 5.222357e-03 1 -0.4563 2.0009)" class="st2" width="2.45" height="24.51"/>
				</g>
				<g>
					<path class="st4" d="M386.99,100.61c0.01,2.23-1.78,4.05-4,4.06s-4.03-1.79-4.04-4.02c-0.01-2.23,1.78-4.05,4-4.06
						S386.98,98.38,386.99,100.61z"/>
				</g>
				<g>
					<path class="st4" d="M370.35,120.68c-25.75,7.57-44.74,8.85-72.03,0.38c-0.01,0-0.21-37.76-0.21-37.76l72.1-0.38
						C370.22,82.92,370.42,120.66,370.35,120.68z"/>
				</g>
				<g>
					<polygon class="st2" points="279.61,78.69 335.51,57.27 391.64,78.1 335.73,99.51 					"/>
				</g>
			</g>
		</g>
		<g>
			<g>
				<path class="st10" d="M160.76,182.85c0,0,8.19,44.46,28.82,34.39l10.59,15.43l23.93-10.48l-10.23-15.36l-9.3-24.38l-11.64-19.06
					C192.91,163.39,162.41,156.08,160.76,182.85z"/>
			</g>
			<g>
				<path class="st11" d="M3.51,329.52c-1.66-3.62-1.67-7.76-1.65-11.74c0.03-5.68,0.06-11.36,0.1-17.04
					c0.02-3.83,0.11-7.88,2.14-11.11c1.87-2.97,5.36-4.85,8.86-4.77c3.5,0.08,6.89,2.12,8.63,5.18c1.82,3.21,1.79,7.1,1.74,10.79
					c-0.05,3.69-0.01,7.6,1.91,10.75c2.02,3.19,5.86,4.52,9.3,3.1c1.88,8.36,5.07,18.82-4.44,22.94
					C21.45,341.37,7.74,338.72,3.51,329.52z"/>
			</g>
			<g>
				<path class="st12" d="M164.86,306.41l-134.39,2.35c-3.74,0-3.82,4.45-3.95,11.61c-0.18,9.96,2.93,15.13,7.7,18.45l175.25,0.38
					c3.94,0.09,5.41,1.01,6.51-2.5c0.72-2.28,2.54-9.16,1.71-11.58C215.56,318.83,164.86,306.41,164.86,306.41z"/>
			</g>
			<g>
				<path class="st10" d="M138.17,283.19c-3.26-0.61-6.86-0.85-9.66,0.93c-2.28,1.44-3.64,3.99-4.53,6.55
					c-0.91,2.6-1.41,5.58-0.21,8.06c1.2,2.48,4.68,3.92,6.83,2.2c1.71-1.37,1.98-4.1,3.83-5.27c1.26-0.79,2.86-0.61,4.33-0.41
					c2.79,0.39,5.58,0.77,8.38,1.16c0.13,0.02,1.95-10.33,1.23-11.31C147.15,283.44,140.28,283.58,138.17,283.19z"/>
			</g>
			<g>
				<path class="st13" d="M200.58,224.73c0,0-10.61,3.32-21.82,21.4c-5.64,9.1-0.54,18.66-6.6,34.68l-27.22,0.1l-1.32,18.22
					l23.77,1.24l-2.57,6.09c0,0,16.69,16.42,51.16,32.1c0,0,23.47-42.98,8.25-118.98L200.58,224.73z"/>
			</g>
			<g>
				<path class="st14" d="M161.18,185.37c0.19,6.59,16.93,6.55,26.83,3.76c2.36-0.66,4.33-1.48,5.6-2.41
					c1.73-1.26,1.97-7.08,7.31-4.45c5.34,2.63,1.79,12.05-3.72,10.67c0,0,0.04,2.05,0.17,5.23c0.43,10.97,1.82,35.39,5.78,35.24
					c19.8-0.74,12.05,18.29,13.94,22.69c5.55,12.93,19.46,7.52,19.25,3.69c-1.15-21.39-9.05-22.51-12.29-42.8
					c-3.12-19.55-10.02-43.81-21.08-53.1c-4.82-4.05-16.47-6.31-26.25-3.04c-2.47,0.82-4.83,2-6.92,3.6
					C164.52,168.46,160.89,175.11,161.18,185.37z M191.13,179.29c1.31-1.3,2.95-2.27,4.77-2.77L191.13,179.29z"/>
			</g>
			<g>
				<polygon class="st7" points="139.84,307.6 95.01,307.6 69.01,264.43 74.7,260.96 98.75,300.91 139.84,300.91 				"/>
			</g>
			<g>
				<path class="st15" d="M145.02,280.99l44.56,0.37c0,0,2.73-12.19,3.85-16.42c1.5-5.63,1.56-11.97,3.06-17.6
					c0.83-3.14,1.7-6.35,3.49-9.06c1.79-2.71,4.71-4.88,7.95-4.89c4.45-0.02,8.07,4.1,9.01,8.48c0.94,4.38-0.96,9.98-1.36,13.22
					c-1.52,12.17-3.81,20.55-6.18,30.76c-1.29,5.57-5.89,10.15-10.9,12.84c-5.14,2.77-11.29,2.58-17.12,2.32
					c-6.36-0.28-31.46-1.66-37.82-1.94L145.02,280.99z"/>
			</g>
			<g>
				<path class="st16" d="M190.04,217.66l-0.61-1.19c1.17-0.61,3.9-2.53,5.93-5.49l1.1,0.76
					C194.29,214.91,191.41,216.95,190.04,217.66z"/>
			</g>
			<g>
				<g>
					<path class="st17" d="M187.84,187.19c0,0.66,0.06,1.31,0.17,1.94c0.83,4.71,4.61,8.39,9.36,9.03c0.48,0.07,0.97,0.1,1.47,0.1
						c6.08,0,11-4.95,11-11.07s-4.93-11.07-11-11.07c-1.02,0-2,0.14-2.93,0.4c-1.82,0.51-3.46,1.47-4.77,2.77
						C189.1,181.3,187.84,184.1,187.84,187.19z"/>
				</g>
				<g>
					<ellipse class="st18" cx="198.84" cy="187.19" rx="6.05" ry="6.09"/>
				</g>
				<g>
					<path class="st17" d="M169.8,164.44c4.82,0.88,13.3,4.02,21.33,14.85c1.31-1.3,2.95-2.27,4.77-2.77c0,0-5.4-10.74-19.18-15.67
						C174.25,161.67,171.9,162.85,169.8,164.44z"/>
				</g>
			</g>
		</g>
		<g>
			<g>
				<g>
					<path class="st1" d="M454.96,227.42c-3.16-23.54-4.63-47.89,0.73-70.91c1.85-7.95,5.03-16.35,11.52-20.07
						c6.98-4,16.01-0.97,21.28,5.57c5.27,6.54,7.21,15.8,7.02,24.64c-0.2,8.84-2.31,17.46-4.26,26.03
						c-5.4,23.78-9.54,47.9-13.24,72.09c-0.93,6.05-1.83,12.11-2.71,18.16c-0.44,3-0.14,12.45-3.75,12.45
						c-4.14,0-4.84-8.02-5.63-11.15c-1.45-5.71-2.79-11.46-4.04-17.23C459.06,253.92,456.75,240.72,454.96,227.42z"/>
					<path class="st7" d="M471.42,291.68c-1.16-2.82-2.01-5.78-2.55-8.79c-0.55-3.02-0.84-6.08-1-9.13
						c-0.15-3.06-0.16-6.12-0.16-9.17c0-3.05,0.03-6.1,0.05-9.15c0.02-3.05,0.05-6.1,0.1-9.15l0.15-9.15
						c0.12-6.1,0.29-12.19,0.45-18.29c0.2-6.1,0.41-12.19,0.65-18.29l0.4-9.14l0.21-4.57l0.24-4.57c0.34-6.08,0.58-12.19,1.32-18.28
						c0.39-3.04,0.88-6.07,1.62-9.04c0.19-0.74,0.37-1.48,0.6-2.22l0.32-1.1l0.36-1.09c0.23-0.73,0.52-1.44,0.79-2.15
						c0.13-0.36,0.29-0.71,0.44-1.06l0.45-1.05c-2.12,5.73-3.15,11.76-3.62,17.8c-0.25,3.03-0.4,6.06-0.49,9.1l-0.26,9.14
						l-1.07,36.56l-1.14,36.56l-0.3,9.14c-0.11,3.04-0.19,6.08-0.16,9.12c0.01,1.52,0.06,3.03,0.15,4.55
						c0.06,0.76,0.1,1.51,0.18,2.27l0.11,1.13l0.14,1.13c0.04,0.38,0.1,0.75,0.16,1.13c0.06,0.37,0.11,0.75,0.18,1.12l0.22,1.12
						c0.04,0.19,0.07,0.37,0.11,0.56l0.13,0.55l0.25,1.11l0.3,1.1l0.15,0.55l0.17,0.54L471.42,291.68z"/>
					<path class="st7" d="M473.98,169.76c0.35-1.9,1.03-3.73,1.92-5.45c0.89-1.72,2-3.34,3.28-4.8c1.28-1.46,2.73-2.78,4.32-3.89
						c1.59-1.11,3.31-2.02,5.13-2.63l0.08,0.15c-0.16,0.05-0.32,0.11-0.48,0.16c0.13-0.1,0.27-0.2,0.41-0.3l0.08,0.15
						c-1.55,1.12-3.03,2.26-4.42,3.49c-1.39,1.23-2.71,2.53-3.93,3.92c-1.22,1.39-2.36,2.85-3.41,4.39
						C475.87,166.47,474.92,168.08,473.98,169.76z"/>
					<path class="st7" d="M474.77,183.48c0.53-1.42,1.31-2.74,2.24-3.95c0.93-1.21,2-2.3,3.19-3.26c1.19-0.96,2.48-1.78,3.85-2.43
						c1.37-0.65,2.82-1.14,4.31-1.39l0.1,0.33c-0.3,0.03-0.61,0.05-0.92,0.07c0.27-0.14,0.55-0.28,0.83-0.41l0.1,0.33
						c-1.3,0.72-2.57,1.44-3.78,2.22c-1.22,0.78-2.39,1.61-3.52,2.49c-1.13,0.89-2.22,1.83-3.27,2.83
						C476.82,181.33,475.81,182.39,474.77,183.48z"/>
					<path class="st7" d="M473.43,202.02c0.48-1.54,1.22-2.98,2.1-4.33c0.88-1.35,1.92-2.59,3.07-3.72
						c1.15-1.13,2.42-2.13,3.78-2.98c1.36-0.85,2.81-1.55,4.36-1.99c-1.24,1.02-2.46,1.98-3.64,2.99c-1.18,1-2.31,2.04-3.41,3.11
						c-1.1,1.07-2.16,2.19-3.18,3.35C475.47,199.59,474.48,200.8,473.43,202.02z"/>
					<path class="st7" d="M472.86,218.19c0.54-1.44,1.27-2.77,2.08-4.05c0.82-1.28,1.73-2.49,2.72-3.64
						c0.99-1.14,2.07-2.22,3.22-3.2c1.15-0.98,2.37-1.88,3.72-2.62c-0.92,1.23-1.89,2.36-2.85,3.49l-2.91,3.36l-2.92,3.35
						C474.93,215.99,473.95,217.11,472.86,218.19z"/>
					<path class="st7" d="M465.5,246.31c-0.65-0.86-1.2-1.71-1.76-2.54c-0.56-0.83-1.12-1.65-1.7-2.46
						c-0.57-0.81-1.16-1.61-1.76-2.41c-0.6-0.81-1.22-1.61-1.82-2.51c1.01,0.38,1.9,0.97,2.71,1.66c0.81,0.69,1.53,1.48,2.14,2.35
						c0.61,0.87,1.13,1.81,1.51,2.8C465.19,244.19,465.46,245.23,465.5,246.31z"/>
					<path class="st7" d="M465.32,227.42c-0.88-1.01-1.66-2.06-2.44-3.1c-0.77-1.04-1.53-2.08-2.29-3.12
						c-0.76-1.04-1.51-2.09-2.26-3.14c-0.74-1.06-1.49-2.13-2.18-3.29c1.15,0.69,2.17,1.56,3.11,2.48c0.94,0.93,1.81,1.95,2.58,3.02
						c0.78,1.07,1.47,2.21,2.07,3.4C464.5,224.87,465.01,226.11,465.32,227.42z"/>
					<path class="st7" d="M466.17,208.94c-0.73-1.15-1.4-2.28-2.12-3.37c-0.71-1.1-1.44-2.16-2.21-3.19
						c-0.77-1.04-1.58-2.04-2.42-3.03c-0.84-0.99-1.73-1.96-2.63-2.96l0.17-0.07c-0.07,0.15-0.14,0.3-0.21,0.44
						c-0.01-0.17,0-0.33,0-0.49l0-0.14l0.17,0.08c1.24,0.57,2.37,1.34,3.4,2.22c1.04,0.89,1.96,1.91,2.77,3.01
						c0.81,1.1,1.49,2.3,2.03,3.56C465.64,206.26,466.04,207.58,466.17,208.94z"/>
					<path class="st7" d="M467.59,189.28c-0.67-0.19-1.27-0.65-1.75-1.19c-0.48-0.53-0.86-1.14-1.21-1.71
						c-0.18-0.29-0.35-0.57-0.52-0.84l-0.27-0.4l-0.13-0.2l-0.14-0.19c-0.37-0.52-0.78-1-1.21-1.46c-0.86-0.92-1.84-1.73-2.92-2.44
						c-0.54-0.36-1.1-0.67-1.68-0.98c-0.59-0.3-1.2-0.56-1.84-0.84c0.69-0.06,1.39-0.02,2.08,0.11c0.69,0.14,1.37,0.34,2.02,0.62
						c1.3,0.57,2.49,1.4,3.47,2.45c0.13,0.13,0.24,0.27,0.36,0.4c0.11,0.14,0.24,0.27,0.34,0.42l0.32,0.44
						c0.1,0.15,0.2,0.3,0.29,0.45l0.14,0.23l0.13,0.24c0.08,0.16,0.17,0.32,0.24,0.48c0.15,0.32,0.28,0.64,0.41,0.96
						c0.25,0.63,0.47,1.25,0.75,1.83C466.75,188.25,467.09,188.79,467.59,189.28z"/>
					<path class="st7" d="M467.55,174.96c-0.77-0.94-1.47-1.86-2.19-2.75c-0.72-0.89-1.45-1.76-2.21-2.6
						c-0.76-0.84-1.54-1.66-2.35-2.47c-0.81-0.81-1.65-1.6-2.5-2.47c1.18,0.3,2.26,0.85,3.27,1.51c1,0.67,1.92,1.47,2.73,2.37
						c0.81,0.9,1.51,1.9,2.07,2.97C466.94,172.61,467.37,173.75,467.55,174.96z"/>
					<path class="st7" d="M469.52,161.79c-0.52-1.28-0.99-2.51-1.53-3.7c-0.53-1.2-1.11-2.35-1.74-3.48
						c-0.63-1.13-1.32-2.23-2.06-3.31c-0.74-1.08-1.54-2.13-2.35-3.24c1.24,0.6,2.33,1.47,3.3,2.45c0.96,0.99,1.8,2.11,2.47,3.32
						c0.68,1.21,1.2,2.51,1.54,3.85C469.48,159.03,469.65,160.41,469.52,161.79z"/>
				</g>
				<g>
					<path class="st8" d="M473.88,294.86c-8.33-41.54,6.75-93.52,38.49-121.38c7.25-6.37,17.51-12.07,26.05-7.59
						c8.21,4.3,9.71,16.13,5.88,24.62c-3.82,8.48-11.36,14.54-18.19,20.82c-24.45,22.46-42.7,51.69-52.21,83.6"/>
					<path class="st7" d="M473.89,281.01c0.7-10.48,2.72-20.88,5.83-30.95l1.21-3.76l1.32-3.72l1.42-3.69l1.51-3.65
						c2.09-4.84,4.44-9.57,7-14.17c2.6-4.59,5.41-9.05,8.45-13.34l2.33-3.18l2.41-3.12l2.49-3.06l2.58-2.98
						c6.97-7.87,14.8-14.97,23.36-20.98c-8.07,6.65-15.52,14-22.21,21.98l-2.47,3.03l-2.41,3.07l-2.33,3.13l-2.25,3.19
						c-2.96,4.28-5.73,8.69-8.27,13.24c-2.57,4.53-4.9,9.19-7.01,13.95l-1.55,3.58l-1.47,3.62l-1.38,3.66l-1.3,3.69
						C477.81,260.42,475.4,270.63,473.89,281.01z"/>
					<path class="st7" d="M516.85,193.17c1.24-1.25,2.68-2.3,4.21-3.19c1.53-0.88,3.17-1.59,4.86-2.12c1.69-0.53,3.44-0.87,5.2-1.01
						c1.76-0.14,3.54-0.08,5.26,0.25c-1.75,0.16-3.46,0.36-5.14,0.67c-1.69,0.31-3.35,0.71-4.98,1.21
						c-1.63,0.51-3.23,1.11-4.79,1.82C519.91,191.51,518.38,192.31,516.85,193.17z"/>
					<path class="st7" d="M505.69,210.18c1.17-1.45,2.55-2.72,4.05-3.83c1.5-1.11,3.12-2.07,4.82-2.84c1.7-0.78,3.48-1.38,5.3-1.78
						c1.82-0.4,3.68-0.61,5.54-0.55c-1.8,0.42-3.57,0.88-5.3,1.44c-1.73,0.56-3.41,1.21-5.06,1.96c-1.64,0.75-3.24,1.6-4.8,2.54
						C508.7,208.05,507.19,209.09,505.69,210.18z"/>
					<path class="st7" d="M493.4,225.53c0.7-1.35,1.68-2.56,2.8-3.6c1.13-1.04,2.42-1.92,3.8-2.59c1.38-0.68,2.86-1.16,4.37-1.41
						c1.51-0.25,3.06-0.28,4.55,0c-1.5,0.21-2.94,0.49-4.34,0.9c-1.4,0.41-2.76,0.93-4.06,1.57c-1.3,0.64-2.55,1.39-3.73,2.25
						C495.6,223.5,494.49,224.47,493.4,225.53z"/>
					<path class="st7" d="M482.68,247.2c0.98-1.31,2.1-2.51,3.29-3.63c1.19-1.12,2.46-2.15,3.79-3.11c1.33-0.95,2.72-1.82,4.16-2.58
						c1.44-0.76,2.93-1.44,4.49-1.94c-1.34,0.94-2.69,1.83-4.02,2.73c-1.33,0.9-2.65,1.82-3.95,2.75c-1.3,0.93-2.59,1.89-3.88,2.85
						C485.27,245.25,484,246.24,482.68,247.2z"/>
					<path class="st7" d="M479.2,242.95c0.05-1.29,0.21-2.55,0.4-3.8c0.2-1.25,0.44-2.49,0.72-3.73c0.28-1.23,0.6-2.46,0.97-3.67
						c0.37-1.21,0.78-2.42,1.3-3.6c-0.05,1.29-0.21,2.55-0.4,3.8c-0.2,1.25-0.44,2.49-0.73,3.73c-0.28,1.23-0.6,2.46-0.97,3.67
						C480.12,240.57,479.72,241.78,479.2,242.95z"/>
					<path class="st7" d="M489.37,218.97c0.07-1.09,0.25-2.15,0.47-3.2c0.22-1.05,0.48-2.08,0.79-3.11c0.3-1.02,0.64-2.04,1.03-3.04
						c0.39-1,0.81-1.99,1.35-2.94c-0.07,1.09-0.25,2.15-0.47,3.2c-0.22,1.05-0.48,2.08-0.79,3.11c-0.3,1.02-0.64,2.04-1.03,3.04
						C490.33,217.02,489.91,218.01,489.37,218.97z"/>
					<path class="st7" d="M500.69,199.9c-0.03-1.54,0.15-3.07,0.47-4.58c0.32-1.5,0.79-2.98,1.39-4.4c0.6-1.42,1.32-2.79,2.17-4.07
						c0.85-1.28,1.82-2.48,2.94-3.52c-0.74,1.34-1.47,2.66-2.15,3.99c-0.68,1.33-1.31,2.68-1.89,4.06c-0.58,1.37-1.1,2.77-1.58,4.19
						C501.56,196.99,501.13,198.43,500.69,199.9z"/>
					<path class="st7" d="M512.32,189.47c-0.05-1.46,0.17-2.92,0.55-4.33c0.39-1.41,0.96-2.78,1.68-4.06
						c0.72-1.28,1.6-2.47,2.61-3.54c1.01-1.06,2.15-1.99,3.42-2.7c-0.96,1.09-1.88,2.16-2.72,3.3c-0.84,1.13-1.6,2.3-2.29,3.52
						c-0.69,1.22-1.3,2.48-1.83,3.78C513.2,186.74,512.75,188.08,512.32,189.47z"/>
				</g>
				<g>
					<path class="st8" d="M453.13,249.21c-4.42-7.56-9.91-14.79-17.45-19.19c-6.27-3.66-13.52-5.12-20.58-6.75
						c-2.33-0.54-4.83-1.21-6.33-3.07c-1.15-1.43-1.52-3.36-1.49-5.2c0.08-4.81,2.71-9.38,6.44-12.38
						c3.74-3.01,8.48-4.56,13.24-5.02c9.79-0.96,19.93,2.68,26.91,9.66c4.92,4.92,8.23,11.29,10.34,17.93
						c2.12,6.65,3.1,13.6,3.89,20.53c0.93,8.16,1.59,16.35,1.79,24.56c0.2,7.89,0.83,17.06-1.03,24.76
						c-1.43-0.22-1.98-8.89-2.35-10.72c-0.84-4.11-1.9-8.18-3.17-12.17C460.78,264.15,457.36,256.44,453.13,249.21z"/>
					<path class="st7" d="M467.86,289.99l0.09-1.7c0.01-0.28,0.03-0.57,0.04-0.85l0.01-0.85c0-0.57,0.03-1.14,0.02-1.7l-0.04-1.7
						c0-0.28-0.02-0.57-0.03-0.85l-0.05-0.85c-0.03-0.57-0.06-1.13-0.12-1.7l-0.15-1.69l-0.2-1.69l-0.1-0.84l-0.12-0.84
						c-0.08-0.56-0.16-1.12-0.25-1.68c-0.19-1.12-0.37-2.24-0.6-3.35c-0.21-1.11-0.45-2.22-0.68-3.33
						c-0.12-0.55-0.25-1.11-0.38-1.66c-0.13-0.55-0.25-1.1-0.39-1.65c-1.08-4.4-2.31-8.78-3.59-13.14
						c-1.28-4.35-2.65-8.67-4.57-12.75c-0.47-1.02-0.98-2.02-1.52-3.01c-0.55-0.97-1.12-1.95-1.75-2.87
						c-1.24-1.86-2.65-3.61-4.19-5.23c-3.09-3.24-6.74-5.93-10.67-8.08c-7.91-4.25-16.98-6.3-26.02-5.96
						c0.56-0.04,1.13-0.09,1.69-0.12c0.57-0.02,1.13-0.06,1.7-0.07c0.57,0,1.13-0.02,1.7,0l0.85,0.02c0.28,0.01,0.57,0.03,0.85,0.04
						c2.27,0.12,4.53,0.39,6.76,0.81c4.47,0.87,8.83,2.36,12.89,4.45c2.04,1.04,3.99,2.25,5.84,3.61c1.85,1.36,3.6,2.86,5.21,4.5
						c1.6,1.65,3.06,3.45,4.35,5.36c1.29,1.91,2.41,3.93,3.38,6.02c0.97,2.09,1.8,4.23,2.54,6.39c0.74,2.17,1.41,4.35,2.03,6.55
						c1.22,4.39,2.43,8.78,3.41,13.24c0.49,2.23,0.96,4.46,1.32,6.72c0.2,1.12,0.35,2.26,0.51,3.39c0.08,0.57,0.13,1.13,0.2,1.7
						l0.1,0.85c0.03,0.28,0.05,0.57,0.08,0.85l0.14,1.71l0.09,1.71c0.04,0.57,0.04,1.14,0.05,1.71l0.02,0.86
						c0.01,0.29,0.01,0.57,0,0.86C468.28,285.45,468.11,287.73,467.86,289.99z"/>
					<path class="st7" d="M462.41,242.62c-0.3-0.76-0.45-1.57-0.5-2.38c-0.05-0.81,0-1.64,0.15-2.44c0.15-0.8,0.39-1.59,0.73-2.33
						c0.34-0.74,0.77-1.44,1.32-2.04c-0.2,0.79-0.42,1.54-0.6,2.3c-0.19,0.75-0.35,1.5-0.49,2.25c-0.14,0.75-0.25,1.51-0.35,2.28
						C462.57,241.03,462.5,241.8,462.41,242.62z"/>
					<path class="st7" d="M457.05,230.16c-0.39-0.76-0.61-1.6-0.73-2.45c-0.11-0.85-0.11-1.72,0-2.57c0.11-0.85,0.33-1.69,0.65-2.49
						c0.33-0.79,0.76-1.54,1.33-2.18c-0.21,0.83-0.43,1.62-0.6,2.41c-0.18,0.79-0.31,1.58-0.42,2.38c-0.1,0.8-0.17,1.6-0.2,2.41
						C457.05,228.49,457.05,229.3,457.05,230.16z"/>
					<path class="st7" d="M449.24,220.48c-0.6-0.74-1.03-1.61-1.35-2.51c-0.32-0.91-0.51-1.86-0.58-2.82
						c-0.07-0.96-0.01-1.93,0.18-2.87c0.19-0.94,0.5-1.86,0.99-2.68c-0.1,0.95-0.19,1.86-0.23,2.77c-0.04,0.91-0.03,1.81,0.03,2.71
						c0.06,0.9,0.18,1.79,0.34,2.69C448.79,218.67,449.01,219.56,449.24,220.48z"/>
					<path class="st7" d="M438.93,212.91c-0.21-0.84-0.39-1.66-0.59-2.47c-0.2-0.81-0.41-1.61-0.64-2.4
						c-0.23-0.79-0.49-1.57-0.76-2.36c-0.27-0.79-0.57-1.57-0.85-2.4c0.62,0.61,1.12,1.32,1.54,2.08c0.42,0.76,0.75,1.57,1,2.4
						c0.25,0.83,0.4,1.69,0.47,2.56C439.15,211.19,439.11,212.06,438.93,212.91z"/>
					<path class="st7" d="M428.57,210.84c-0.31-0.82-0.63-1.6-1-2.35c-0.36-0.75-0.78-1.46-1.23-2.14
						c-0.46-0.68-0.96-1.33-1.51-1.95c-0.55-0.62-1.15-1.21-1.79-1.81c0.84,0.25,1.62,0.7,2.32,1.25c0.69,0.56,1.3,1.22,1.8,1.97
						c0.5,0.74,0.88,1.56,1.14,2.41C428.53,209.07,428.66,209.96,428.57,210.84z"/>
					<path class="st7" d="M424.24,215.37c-0.66,0.44-1.27,0.79-1.85,1.17c-0.58,0.37-1.13,0.75-1.67,1.14
						c-0.54,0.39-1.07,0.8-1.6,1.24c-0.54,0.44-1.06,0.91-1.68,1.4c0.04-0.8,0.34-1.55,0.76-2.21c0.42-0.66,0.97-1.24,1.61-1.7
						c0.63-0.46,1.36-0.81,2.11-1C422.67,215.22,423.47,215.16,424.24,215.37z"/>
					<path class="st7" d="M432.94,217.44c-0.77,0.3-1.5,0.59-2.21,0.93c-0.7,0.34-1.37,0.72-2.01,1.14
						c-0.64,0.42-1.26,0.89-1.85,1.4c-0.59,0.51-1.15,1.06-1.73,1.66c0.23-0.8,0.66-1.54,1.18-2.19c0.53-0.65,1.16-1.22,1.86-1.68
						c0.7-0.46,1.48-0.82,2.28-1.04C431.27,217.43,432.11,217.34,432.94,217.44z"/>
					<path class="st7" d="M441.18,224.03c-0.66,0.3-1.26,0.52-1.83,0.75c-0.57,0.23-1.12,0.47-1.66,0.71
						c-0.54,0.25-1.08,0.5-1.63,0.78c-0.56,0.27-1.11,0.57-1.78,0.87c0.16-0.72,0.56-1.33,1.04-1.85c0.49-0.52,1.08-0.93,1.73-1.22
						c0.65-0.29,1.35-0.46,2.06-0.48C439.82,223.57,440.54,223.68,441.18,224.03z"/>
					<path class="st7" d="M449.23,228.17c-0.75,0.02-1.44,0.07-2.13,0.18c-0.68,0.11-1.34,0.28-1.98,0.5
						c-0.64,0.22-1.26,0.5-1.86,0.84c-0.6,0.33-1.18,0.73-1.78,1.17c0.28-0.7,0.77-1.31,1.35-1.81c0.58-0.5,1.26-0.88,1.98-1.13
						c0.72-0.25,1.49-0.37,2.25-0.34C447.83,227.62,448.58,227.79,449.23,228.17z"/>
					<path class="st7" d="M455.65,237.22c-0.65-0.14-1.24-0.28-1.84-0.38c-0.6-0.11-1.19-0.18-1.78-0.23
						c-0.59-0.05-1.19-0.06-1.79-0.05c-0.61,0.01-1.22,0.05-1.88,0.09c0.52-0.42,1.13-0.69,1.77-0.85c0.64-0.16,1.31-0.22,1.98-0.16
						c0.66,0.05,1.32,0.21,1.93,0.47C454.64,236.36,455.21,236.73,455.65,237.22z"/>
					<path class="st7" d="M457.47,243.69c-0.46-0.05-0.87-0.12-1.26-0.17c-0.39-0.05-0.78-0.1-1.16-0.13
						c-0.38-0.03-0.77-0.06-1.17-0.07c-0.4-0.02-0.81-0.02-1.27-0.06c0.32-0.35,0.73-0.57,1.17-0.71c0.44-0.13,0.9-0.18,1.36-0.14
						c0.46,0.04,0.91,0.17,1.31,0.38C456.85,243,457.22,243.29,457.47,243.69z"/>
				</g>
			</g>
			<path class="st4" d="M488.71,338.98c-0.01,0.01-34.46,0.01-34.47,0c-12.49-11.37-9.18-53.14-9.18-53.14h52.83
				C497.89,285.84,501.59,328.78,488.71,338.98z"/>
		</g>
	</g>
</g>
</svg>
