<?xml version="1.0" encoding="utf-8"?>
<!-- Generator: Adobe Illustrator 25.4.1, SVG Export Plug-In . SVG Version: 6.00 Build 0)  -->
<svg version="1.1" id="Layer_1" xmlns="http://www.w3.org/2000/svg" xmlns:xlink="http://www.w3.org/1999/xlink" x="0px" y="0px"
	 viewBox="0 0 784.71 473.94" style="enable-background:new 0 0 784.71 473.94;" xml:space="preserve">
<style type="text/css">
	.st0{display:none;}
	.st1{display:inline;opacity:0.2;fill:#8FC3DF;}
	.st2{display:inline;}
	.st3{fill:#8FC3DF;}
	.st4{fill:#BDE0F2;}
	.st5{fill:#62A0C2;}
	.st6{fill:#E9F7FE;}
	.st7{fill:#EAC2A6;}
	.st8{fill:#B5762A;}
	.st9{fill:#FEC666;}
	.st10{fill:#EAB65D;}
	.st11{fill:#F09E20;}
	.st12{fill:#806A5B;}
	.st13{fill:#FDD4B6;}
	.st14{fill:#FFCE7D;}
	.st15{fill:#3664A7;}
	.st16{fill:#547EBC;}
	.st17{fill:#7FA1D3;}
	.st18{fill:#FEE78F;}
	.st19{fill:#F0C319;}
	.st20{fill:#FDD740;}
	.st21{display:inline;opacity:0.2;}
	.st22{fill:none;}
	.st23{fill:#FFFFFF;}
	.st24{opacity:0.2;}
	.st25{fill:#CDAA90;}
	.st26{fill:#F3F3F3;}
	.st27{fill:#FEE065;}
</style>
<g class="st0">
	<path class="st1" d="M718.74,422.98c0.01-0.05,0.02-0.11,0.02-0.16c0-10.43-160.88-18.88-359.33-18.88S0.1,412.39,0.1,422.82
		c0,5.81,49.94,11,128.5,14.47c1.18,14.9,31,26.83,67.62,26.83c33.52,0,61.34-9.99,66.72-23.11c30.7,0.45,63.06,0.69,96.49,0.69
		c53.55,0,104.35-0.62,150.01-1.72c-2.55,2.1-3.91,4.29-3.91,6.55c0,15.33,62.41,27.75,139.4,27.75s139.4-12.42,139.4-27.75
		C784.32,436.59,758.12,427.88,718.74,422.98z"/>
	<g class="st2">
		<g>
			<path class="st3" d="M712.67,100.31H90.77V44.65c0-24.48,19.84-44.32,44.32-44.32h533.25c24.48,0,44.32,19.84,44.32,44.32V100.31
				z"/>
			<path class="st4" d="M668.34,426.26H135.09c-24.48,0-44.32-19.84-44.32-44.32V100.31h621.9v281.62
				C712.67,406.41,692.82,426.26,668.34,426.26z"/>
			<circle class="st5" cx="168.75" cy="52.32" r="26"/>
			<circle class="st5" cx="248.74" cy="52.32" r="26"/>
			<circle class="st5" cx="328.73" cy="52.32" r="26"/>
			
				<ellipse transform="matrix(0.7071 -0.7071 0.7071 0.7071 -68.9256 362.1706)" class="st6" cx="402.72" cy="264.29" rx="129.98" ry="129.98"/>
			<polygon class="st4" points="352.72,334.27 352.72,194.3 492.7,263.29 			"/>
		</g>
		<g>
			<rect x="190.23" y="327.55" class="st7" width="15.34" height="19.44"/>
			<path class="st8" d="M215.11,455.15c2.63,0.92,5.51,1.32,8.23,0.7c2.72-0.63,5.25-2.37,6.44-4.9c1.19-2.53,0.8-5.82-1.22-7.74
				c-1.94-1.86-4.85-2.17-7.53-2.38c-3.36-0.27-6.73-0.53-10.09-0.8c-3.83-0.3-6.77,3.78-5.67,7.57
				C206.32,451.2,211.91,454.03,215.11,455.15z"/>
			<path class="st7" d="M190.22,336.16c0,0-0.68,4.78-5.97,4.78l-0.34,19.44h27.29l-0.34-19.44c0,0-4.09,0.68-5.29-4.78H190.22z"/>
			<path class="st9" d="M170.48,417.56c3.47,0.96,6.71-1.25,9.6-4.33c2.36-2.52,2.27-6.21,2.25-6.28c-0.43-1.35-4.36-3.48-6.99-4.23
				c-11.13-3.2-6.55-6.08-17.68-9.28c0,0-10.08,4.82-4.42,12.89C153.32,406.44,159.52,414.53,170.48,417.56z"/>
			<path class="st9" d="M172.37,364.48c2.76-4.08,6.84-7.84,7.18-12.56c0.27-3.83-1.77-8.56-6.45-8.12
				c-6.59,0.62-10.53,8.07-13.22,13.61c-2.4,4.93-2.74,7.59-4.47,12.8c-0.73,2.22-4.95,30.55-3.9,30.67
				c6.41,7.08,14.06,1.96,14.06,1.96c0.6-4.35-0.37-12.3,0.24-16.65C166.85,378.69,167.96,371,172.37,364.48z"/>
			<polygon class="st10" points="169.17,437.18 225.75,437.18 226.43,407.44 168.52,407.44 			"/>
			<path class="st11" d="M168.09,416.73c-3.38-1.85-6.83-3.71-10.6-4.51c-3.77-0.79-7.98-0.37-11,2.03
				c-3.88,3.08-4.89,8.89-3.18,13.53s5.69,8.18,10.11,10.4c4.42,2.22,9.32,3.3,14.16,4.36c13.06,2.85,26.12,5.71,39.17,8.56
				c1.66-3.24,6.02-8.41,3.58-11.44c-2.5-3.1-10.22-5.46-13.78-7.4C187.07,427.09,177.58,421.91,168.09,416.73z"/>
			<path class="st8" d="M181.78,438.36c-3.01-0.58-6.41-1.05-8.6,1.18c-2.36,2.41-2.16,7.32-0.08,10.51
				c2.08,3.19,5.54,4.77,8.79,4.92c3.25,0.15,6.35-0.93,9.34-2.13c1.91-0.76,4.02-1.83,4.57-4.15c0.42-1.76-0.24-3.79-1.3-5.29
				C191.29,438.87,186.15,439.21,181.78,438.36z"/>
			<path class="st11" d="M231.6,416.73c3.38-1.85,6.83-3.71,10.6-4.51c3.77-0.79,7.98-0.37,11,2.03c3.88,3.08,4.89,8.89,3.18,13.53
				c-1.71,4.65-5.69,8.18-10.11,10.4c-4.42,2.22-9.32,3.3-14.16,4.36c-13.06,2.85-26.12,5.71-39.17,8.56
				c-1.66-3.24-6.02-8.41-3.58-11.44c2.5-3.1,10.22-5.46,13.78-7.4C212.62,427.09,222.11,421.91,231.6,416.73z"/>
			<path class="st9" d="M226.4,419.52c-3.45,1.01-6.74-0.22-9.67-3.25c-2.4-2.48-2.36-6.17-2.34-6.25c0.41-1.36,4.31-3.54,6.92-4.34
				c11.08-3.37,3.51-6.09,14.58-9.46c0,0,10.13,0.07,8.17,10.54C244.04,406.89,237.32,416.33,226.4,419.52z"/>
			<path class="st9" d="M222.32,364.45c-2.67-4.14-6.68-7.98-6.91-12.71c-0.19-3.83,1.95-8.52,6.62-7.98
				c6.58,0.76,10.36,8.29,12.93,13.88c2.29,4.98,3.22,10.86,4.85,18.05c0.52,2.28,5.63,29.01,4.58,29.11
				c-6.55,6.94-15.08,0.79-15.08,0.79c-0.51-4.36-0.37-14.94-0.88-19.3C227.54,378.78,226.59,371.06,222.32,364.45z"/>
			<path class="st9" d="M223.45,397.93c-0.2,4.73,0.11,9.41,0.6,14.07c0.19,1.85,0.42,3.71,0.65,5.56h-54.36
				c0.24-1.85,0.48-3.71,0.68-5.56c0.51-4.66,0.84-9.34,0.64-14.07c-0.27-6.43-1.37-12.65-2.16-19
				c-1.38-11.18-0.87-22.83,0.41-34.01c4.74-2.13,9.24-3.39,14.26-3.91c0.18,7.2,6.06,12.98,13.3,12.98c0.03,0,0.06,0,0.08,0
				c0.03,0,0.06,0,0.09,0c7.24,0,13.12-5.78,13.29-12.98c5.03,0.51,9.52,1.78,14.27,3.91c1.28,11.18,1.79,22.83,0.4,34.01
				C224.82,385.27,223.72,391.5,223.45,397.93z"/>
			<path class="st5" d="M225.75,421.81v2.94c0,1.45-1.17,2.62-2.62,2.62h-52c-1.44,0-2.62-1.17-2.62-2.62v-2.94H225.75z"/>
			<path class="st12" d="M166.87,333.15c-2.29-3.61-3.72-7.72-4.25-11.99c-1.39-11.09,2.77-22.81,9.81-31.22
				c4.86-5.81,11.58-10.22,18.99-11.95c6.66-1.55,15.9-1.07,19.61,5.76c2.32-1.13,4.59-2.28,7.09-1.38
				c2.31,0.83,4.36,2.52,5.93,4.37c2.21,2.61,3.68,5.76,4.93,8.94c3.66,9.29,6.28,19.42,4.27,29.42c-0.73,3.62-2.25,7.2-4.73,9.97
				c-3.04,3.4-6.83,3.13-11.17,3.25c-9.06,0.25-18.15-0.82-27.19,0.11c-0.83,0.09-1.66,0.17-2.49,0.25
				c-5.52,0.52-14.33,2.31-18.34-2.24C168.43,335.4,167.61,334.3,166.87,333.15z"/>
			<path class="st13" d="M169.19,300.63l3.75,25.94c1.79,12.4,12.42,21.6,24.96,21.6h0c12.53,0,23.16-9.2,24.96-21.6l3.75-25.94
				H169.19z"/>
			<path class="st12" d="M206.86,304.54c2.09,5.27,7.43,9.43,13.08,9.03c5.66-0.4,10.64-6.24,9.2-11.72
				c-0.98-3.73-4.43-6.4-8.12-7.51c-3.69-1.12-7.63-0.95-11.47-0.77c-8.77,0.4-17.55,0.81-26.32,1.21
				c-4.29,0.2-8.66,0.41-12.67,1.95c-4.01,1.54-4.75,6.78-4.91,11.07C165.15,321.78,200.46,317,206.86,304.54z"/>
			<path class="st3" d="M228.52,377.98h-62.78c-2,0-3.53,1.78-3.23,3.76l6.01,40.07h57.23l6.01-40.07
				C232.05,379.76,230.52,377.98,228.52,377.98z"/>
		</g>
		<g>
			<g>
				
					<rect x="66.76" y="181.79" transform="matrix(0.9984 0.0571 -0.0571 0.9984 10.8853 -3.8307)" class="st7" width="11.34" height="13.31"/>
			</g>
			<g>
				<path class="st13" d="M34.6,148.44c0,0-0.42,68.36,48.39,31.29l-3.12-42.42L34.6,148.44z"/>
			</g>
			<g>
				<path class="st12" d="M23.98,418.59c-0.59,0.36-1.2,0.76-1.51,1.37c-0.54,1.06,0.01,2.38,0.84,3.24
					c1.64,1.7,12.85,1.18,15.21,1.39c3.86,0.35,7.74,0.15,11.61-0.04c1.25-0.06,2.52-0.13,3.72-0.49c1.2-0.37,2.35-1.07,2.99-2.14
					c0.86-1.43,0.7-3.23,0.51-4.88c-0.16-1.4-0.32-2.8-0.48-4.21c-0.07-0.61-0.17-1.28-0.64-1.67c-0.4-0.33-0.97-0.37-1.49-0.39
					c-3.32-0.13-6.71-0.49-10.02-0.41c-1.44,0.04-1.22,0.73-1.97,1.74L23.98,418.59z"/>
			</g>
			<g>
				<path class="st11" d="M44.9,291.54c0.24-3.67-0.09-9.78,2.72-10.98c2.47-1.05,12.04,2.33,14.41,2.96
					c2.29,0.61,27.85,1.38,25.53,6.95c2.9-6.96-0.49,10.64-4.97,16.71c-1.46,1.98-3.98,6.4-3.98,6.4s-12.28,41.66-12.42,41.72
					c-8.23,3.49-18.42,3.56-23.64-3.57c-0.1-0.13,4.28-47.56,4.28-47.56C44.13,300.02,44.58,296.51,44.9,291.54z"/>
			</g>
			<g>
				<path class="st9" d="M78.76,192.16c4.59,1.92,7.73,6.38,9.26,11.12c1.53,4.74,1.67,9.79,1.79,14.77
					c0.62,24.82,2.6,43.99-0.35,68.65c-0.35,2.95-0.94,8.91-0.94,8.91s-16.67,1.26-19.71,1.22c-10.26-0.15-14.28-0.39-24.46-1.61
					c-1.08-17.3-0.85-29.37-1.93-46.67c-0.69-11.08-1.34-22.47,2.07-33.04c2.31-7.17,6.86-13.93,13.23-18.09
					c3-1.96,5.97-3.28,9.53-2.88C71.35,195,75.14,194.3,78.76,192.16z"/>
			</g>
			<g>
				<path class="st13" d="M5.37,227.12c-0.96-1.46-1.68-3.5-0.56-4.85c0.6-0.72,1.59-1.01,2.53-0.98c0.94,0.03,1.84,0.35,2.72,0.66
					c3.87,1.37,7.74,2.75,11.62,4.12c-0.9,3.44,0.84,10-3.96,9.16C13.53,234.5,7.64,230.52,5.37,227.12z"/>
			</g>
			<g>
				<path class="st13" d="M20.41,225.51c-0.66-0.19-1.35-0.37-2.02-0.21c-0.67,0.16-1.22,0.66-1.64,1.21
					c-1.69,2.26-1.53,6.49,0.58,8.37c0.95,0.85,2.34,0.65,3.51,1.13c6.43,2.67,12.86,5.35,19.29,8.02c0.8,0.33,1.65,0.68,2.52,0.6
					c1.38-0.11,2.47-1.24,3.14-2.44c0.98-1.74,1.4-3.87,1.1-5.85c-0.18-1.17-0.7-0.92-1.69-1.38c-1.11-0.53-2.22-1.06-3.35-1.56
					c-4.42-2-8.94-3.8-13.53-5.39C25.72,227.1,23.08,226.27,20.41,225.51z"/>
			</g>
			<g>
				<path class="st14" d="M83.27,217.32c0.24-2.74,0.45-5.59-0.54-8.16c-1.84-4.8-8.31-7.22-12.76-4.64
					c-3.78,2.19-5.88,6.65-6.55,10.97c-1.87,12.04-3.58,25.8-5.53,38.44c0,0,7.48,11.88,18.66,3.42
					C76.8,257.17,82.13,230.41,83.27,217.32z"/>
			</g>
			<g>
				<path class="st14" d="M62,258.04c18.41-2.58,7.47-17.69,7.47-17.69l-22.78-7.28c-4.56,0.43-5.23,4.17-5.95,6.19
					c-1.53,4.28-3.16,6.15,0.2,10.42L62,258.04z"/>
			</g>
			<g>
				<path class="st12" d="M51.97,154.66c-0.55,2.28,0.49,4.86,2.47,6.11c1.98,1.25,4.76,1.09,6.58-0.38
					c1.27-1.03,2.12-2.62,3.64-3.22c1.82-0.73,4.05,0.38,4.89,2.16c0.84,1.77,0.46,3.96-0.61,5.6c-1.07,1.65-2.74,2.82-4.49,3.7
					c3.35,4.72,7.8,8.54,12.2,12.3c0.92,0.78,1.87,1.59,3.03,1.93c1.93,0.57,4-0.25,5.71-1.31c4.04-2.5,7.23-6.55,8.12-11.21
					c0.88-4.67-0.8-9.88-4.62-12.7c4.66-2.71,7.33-8.47,6.39-13.77s-5.43-9.8-10.73-10.74c-1.17-0.21-2.51-0.34-3.19-1.31
					c-0.54-0.77-0.45-1.8-0.58-2.73c-0.46-3.39-3.85-5.61-7.15-6.51c-4.95-1.36-10.41-0.75-14.94,1.67
					c-4.53,2.42-8.07,6.61-9.7,11.48c-4.05-3.23-9.95-3.96-14.66-1.82c-4.72,2.15-8.03,7.08-8.25,12.26
					c-0.11,2.62,0.57,5.35,2.24,7.37c1.5,1.81,3.55,2.62,5.83,2.9c1.96,0.25,3.68,0.92,5.62,1.31c2.13,0.43,4.36,0.37,6.46-0.14
					C47.42,157.31,51.62,156.08,51.97,154.66z"/>
			</g>
			<g>
				
					<rect x="11.1" y="206.84" transform="matrix(0.3706 -0.9288 0.9288 0.3706 -196.623 151.5226)" class="st15" width="4.77" height="27.98"/>
			</g>
			<g>
				<path class="st11" d="M56.8,412.96l-13.93-0.97c0,0-0.44-60.13-0.32-60.25c7.84-8.32,18.64-8.72,24.29,1.3
					C66.92,353.17,56.8,412.96,56.8,412.96z"/>
			</g>
		</g>
		<g>
			<g>
				<g>
					<g>
						<path class="st6" d="M761.5,441.58H638.56c-7,0-13.12-3.77-16.47-9.38c-1.04-1.74-1.81-3.66-2.25-5.71
							c-0.29-1.31-0.44-2.68-0.44-4.08c0-0.83,0.05-1.64,0.15-2.45c0.26-2.02,0.83-3.93,1.67-5.71c3.07-6.5,9.69-11.01,17.34-11.01
							h122.5c-2.79,3.74-4.53,7.44-5.49,11.01c-0.52,1.94-0.81,3.85-0.91,5.71c-0.12,2.26,0.04,4.44,0.4,6.52
							c0.35,2,0.88,3.91,1.54,5.71C757.93,435.88,759.77,439.06,761.5,441.58z"/>
					</g>
					<g>
						<g>
							<path class="st16" d="M766.57,447.69H638.56c-13.96,0-25.28-11.32-25.28-25.28c0-6.98,2.83-13.3,7.4-17.87
								s10.89-7.4,17.87-7.4h128.01c-2.18,2.04-4,4.08-5.51,6.12h-122.5c-7.65,0-14.27,4.51-17.34,11.01
								c-0.84,1.77-1.41,3.69-1.67,5.71c-0.1,0.8-0.15,1.62-0.15,2.45c0,1.4,0.15,2.76,0.44,4.08c0.44,2.04,1.21,3.97,2.25,5.71
								c3.35,5.61,9.47,9.38,16.47,9.38H761.5C764.16,445.43,766.57,447.69,766.57,447.69z"/>
						</g>
						<g>
							<path class="st16" d="M620.69,404.54c-4.57,4.57-7.4,10.89-7.4,17.87c0,13.96,11.32,25.28,25.28,25.28h128.01v6.11H638.56
								c-17.31,0-31.39-14.08-31.39-31.39c0-17.31,14.08-31.39,31.39-31.39h128.01v6.12H638.56
								C631.58,397.14,625.26,399.97,620.69,404.54z"/>
						</g>
					</g>
					<g>
						<path class="st4" d="M755.56,414.26c-0.52,1.94-0.81,3.85-0.91,5.71h-135.1c0.26-2.02,0.83-3.93,1.67-5.71H755.56z"/>
					</g>
					<g>
						<path class="st4" d="M756.59,432.2h-134.5c-1.04-1.74-1.81-3.66-2.25-5.71h135.21C755.4,428.49,755.93,430.41,756.59,432.2z"
							/>
					</g>
				</g>
				<g>
					<g>
						<path class="st6" d="M754.16,316.01H631.22c-7,0-13.12-3.77-16.47-9.38c-1.04-1.74-1.81-3.66-2.25-5.71
							c-0.29-1.31-0.44-2.68-0.44-4.08c0-0.83,0.05-1.64,0.15-2.45c0.26-2.02,0.83-3.93,1.67-5.71c3.07-6.5,9.69-11.01,17.34-11.01
							h122.5c-2.79,3.74-4.53,7.44-5.49,11.01c-0.52,1.94-0.81,3.85-0.91,5.71c-0.12,2.26,0.04,4.44,0.4,6.52
							c0.35,2,0.88,3.91,1.54,5.71C750.59,310.31,752.43,313.5,754.16,316.01z"/>
					</g>
					<g>
						<g>
							<path class="st17" d="M759.23,322.13H631.22c-13.96,0-25.28-11.32-25.28-25.28c0-6.98,2.83-13.3,7.4-17.87
								s10.89-7.4,17.87-7.4h128.01c-2.18,2.04-4,4.08-5.51,6.12h-122.5c-7.65,0-14.27,4.51-17.34,11.01
								c-0.84,1.77-1.41,3.69-1.67,5.71c-0.1,0.8-0.15,1.62-0.15,2.45c0,1.4,0.15,2.76,0.44,4.08c0.44,2.04,1.21,3.97,2.25,5.71
								c3.35,5.61,9.47,9.38,16.47,9.38h122.94C756.82,319.87,759.23,322.13,759.23,322.13z"/>
						</g>
						<g>
							<path class="st17" d="M613.35,278.98c-4.57,4.57-7.4,10.89-7.4,17.87c0,13.96,11.32,25.28,25.28,25.28h128.01v6.12H631.22
								c-17.31,0-31.39-14.08-31.39-31.39c0-17.31,14.08-31.39,31.39-31.39h128.01v6.11H631.22
								C624.24,271.58,617.92,274.41,613.35,278.98z"/>
						</g>
					</g>
					<g>
						<path class="st4" d="M748.22,288.7c-0.52,1.94-0.81,3.85-0.91,5.71h-135.1c0.26-2.02,0.83-3.93,1.67-5.71H748.22z"/>
					</g>
					<g>
						<path class="st4" d="M749.25,306.64h-134.5c-1.04-1.74-1.81-3.66-2.25-5.71h135.21C748.06,302.93,748.6,304.84,749.25,306.64z
							"/>
					</g>
				</g>
				<g>
					<g>
						<path class="st18" d="M774.55,378.8H614.91c-7,0-13.12-3.77-16.47-9.38c-1.04-1.74-1.81-3.66-2.25-5.71
							c-0.29-1.31-0.44-2.68-0.44-4.08c0-0.83,0.05-1.64,0.15-2.45c0.26-2.02,0.83-3.93,1.67-5.71c3.07-6.5,9.69-11.01,17.34-11.01
							H774.1c-2.79,3.74-4.53,7.44-5.49,11.01c-0.52,1.94-0.81,3.85-0.91,5.71c-0.12,2.26,0.04,4.44,0.4,6.52
							c0.35,2,0.88,3.91,1.54,5.71C770.98,373.1,772.82,376.28,774.55,378.8z"/>
					</g>
					<g>
						<g>
							<path class="st19" d="M779.61,384.91h-164.7c-13.96,0-25.28-11.32-25.28-25.28c0-6.98,2.83-13.3,7.4-17.87
								s10.89-7.4,17.87-7.4h164.7c-2.18,2.04-4,4.08-5.51,6.11H614.91c-7.65,0-14.27,4.51-17.34,11.01
								c-0.84,1.77-1.41,3.69-1.67,5.71c-0.1,0.8-0.15,1.62-0.15,2.45c0,1.4,0.15,2.76,0.44,4.08c0.44,2.04,1.21,3.97,2.25,5.71
								c3.35,5.61,9.47,9.38,16.47,9.38h159.63C777.2,382.65,779.61,384.91,779.61,384.91z"/>
						</g>
						<g>
							<path class="st19" d="M597.04,341.76c-4.57,4.57-7.4,10.89-7.4,17.87c0,13.96,11.32,25.28,25.28,25.28h164.7v6.12h-164.7
								c-17.31,0-31.39-14.08-31.39-31.39c0-17.31,14.08-31.39,31.39-31.39h164.7v6.12h-164.7
								C607.93,334.36,601.61,337.19,597.04,341.76z"/>
						</g>
					</g>
					<g>
						<path class="st20" d="M768.61,351.48c-0.52,1.94-0.81,3.85-0.91,5.71H595.91c0.26-2.02,0.83-3.93,1.67-5.71H768.61z"/>
					</g>
					<g>
						<path class="st20" d="M769.63,369.42H598.44c-1.04-1.74-1.81-3.66-2.25-5.71h171.9C768.44,365.71,768.98,367.62,769.63,369.42
							z"/>
					</g>
				</g>
			</g>
			<g>
				<g>
					<path class="st16" d="M543.23,450.31l-19.42-5.44c-6.96-1.95-11.02-9.17-9.07-16.13l45.2-161.24
						c1.95-6.96,9.17-11.02,16.13-9.07l19.42,5.44c6.96,1.95,11.02,9.17,9.07,16.13l-45.2,161.24
						C557.41,448.2,550.19,452.26,543.23,450.31z"/>
				</g>
				<g>
					
						<rect x="552.02" y="293.63" transform="matrix(0.9629 0.2699 -0.2699 0.9629 102.0506 -144.1707)" class="st6" width="46.34" height="10.63"/>
				</g>
				<g>
					
						<rect x="547.24" y="310.68" transform="matrix(0.9629 0.2699 -0.2699 0.9629 106.4761 -142.2469)" class="st6" width="46.34" height="10.63"/>
				</g>
			</g>
		</g>
	</g>
</g>
<g class="st0">
	<g class="st21">
		<g>
			<ellipse class="st3" cx="593.19" cy="433.69" rx="91.9" ry="18.76"/>
		</g>
	</g>
	<g class="st21">
		<g>
			<ellipse class="st3" cx="435.73" cy="429.14" rx="54.19" ry="16.49"/>
		</g>
	</g>
	<g class="st21">
		<g>
			<ellipse class="st3" cx="232.96" cy="429.14" rx="134.13" ry="21.03"/>
		</g>
	</g>
	<g class="st2">
		<g>
			<ellipse class="st12" cx="437.13" cy="132.98" rx="28.47" ry="25.02"/>
			<rect x="429.66" y="175.04" class="st7" width="15.21" height="12.56"/>
			<path class="st13" d="M412.57,132.06l3.9,27.47c1.83,10.05,10.58,17.36,20.8,17.36h0c10.22,0,18.97-7.31,20.8-17.36l5.47-30
				l-26.4-9.18L412.57,132.06z"/>
			<path class="st13" d="M416.22,158.06c-2.64-0.52-5.15-2.34-6.37-4.75c-0.83-1.63-1.13-3.6-0.44-5.29s3.42-2.94,5.22-2.65
				L416.22,158.06z"/>
			<path class="st13" d="M458.22,158.06c2.64-0.52,5.48-2.34,6.7-4.75c0.83-1.63,1.13-3.6,0.44-5.29s-3.03-2.99-4.83-2.7
				L458.22,158.06z"/>
			<polygon class="st13" points="420.48,414.08 426.31,414.08 431.16,337.87 416.47,337.87 			"/>
			<path class="st13" d="M481.12,296.34c-1.62,4.65-3.95,8.78-7.85,9.75c-0.72,0.18-1.54,0.23-2.11-0.35
				c-0.77-0.78-0.71-2.28-0.57-3.54c0.79-7.2,2.01-8.86,3.63-15.85c0.25-1.09,8.41-1.87,9.03-0.25
				C484.04,288.2,482.37,292.72,481.12,296.34z"/>
			<polygon class="st13" points="447.92,337.87 452.99,414.08 459.24,414.08 463.53,337.87 			"/>
			<path class="st11" d="M470.28,289.77h-33.18h-6.38h-21.95c0,0,3.68,48.05,3.79,48.09c12.63,5.39,22.02,0,22.02,0l2.31-24.22h5.51
				l2.25,24.22c0,0,13.36,6.08,21.83,0C466.69,337.73,470.28,289.77,470.28,289.77z"/>
			<path class="st13" d="M474.42,239.08c0.51,2.61,0.37,8.21,1.75,10.3c1.38,2.09,4.37,0.59,6.43,0.35c2.15-0.26,6.2-1.27,7.01-3.78
				c0.81-2.52-0.43-6.65-0.9-9.14c-0.54-2.85-1.48-5.91-2.16-8.72c-0.31-1.28-0.74-2.65-1.64-3.36c-0.71-0.56-1.58-0.59-2.39-0.54
				c-2.37,0.14-6.89,0.64-8.44,3.21C472.51,229.97,473.84,236.12,474.42,239.08z"/>
			<path class="st9" d="M444.83,183.22c-6.97,8.21-15.18,0-15.18,0c-7.67,0.04-13.71,0.26-20.37,3.25l-1.53,103.31
				c0,0,33.98,9.64,62.44,0c2-0.68-0.69-100.09-0.69-100.09C462.38,186.47,453.89,183.03,444.83,183.22z"/>
			<path class="st9" d="M482.95,198.19c-3.58-4.41-8.72-7.29-16.11-9.19c0,0,5.98,43.63,6.08,43.66c6.76,2.44,22.02,0.22,21.76-5.57
				C494.41,220.88,482.95,198.19,482.95,198.19z"/>
			<path class="st12" d="M460.09,120.97c-10.38-1-20.76-2-31.14-3c-4.55-0.44-6.74,0.99-11.1,2.39c-4.36,1.4-6.48,3.92-6.66,8.49
				c-0.12,3.1-0.68,15.91,2.75,16.53c-1.15-6.89-1.38-16.99,11.09-17.01c5.32-0.01,9.62,6.02,14.85,5.08
				c3.42-0.62,6.02-3.68,9.45-4.27c3.83-0.65,7.58,2.11,9.35,5.57c1.77,3.46,1.9,6.53,2.09,10.41c1.56-5.67,2.81-10.17,4.36-15.84
				L460.09,120.97z"/>
			<path class="st13" d="M489.91,244.82c0.24-3.1-0.64-4.16-3.54-4.76c-2.26-0.47-2.35-1.15-4.61-1.66
				c-1.91-0.44-4.12-0.45-5.57,1.23c-1.46,1.7-1.58,6.12-1.62,8.6c-0.2,12.9-0.43,24.14-0.63,37.04c-0.02,1.28-0.02,2.67,0.58,3.7
				c1.38,2.37,4.46,1.29,6.37,0.75c2.25-0.64,2.24-2.19,2.8-4.84c1.51-7.13,2.8-14.33,3.75-21.6
				C487.95,259.31,489.6,248.8,489.91,244.82z"/>
			<path class="st13" d="M336.19,208.28c-3.84-3.07-6.96-6.65-6.57-10.65c0.07-0.74,0.3-1.53,1.03-1.87
				c0.99-0.46,2.38,0.09,3.52,0.64c6.52,3.15,7.68,4.85,13.73,8.71c0.95,0.6-1.05,8.55-2.78,8.59
				C342.88,213.74,339.17,210.67,336.19,208.28z"/>
			<path class="st13" d="M393.72,227.49c-1.74,2.01-5.19,5.94-7.43,7.07c-2.24,1.13-5.61-3.55-7.27-4.79
				c-1.74-1.29-4.74-4.18-4.19-6.76c0.55-2.59,3.68-5.56,5.33-7.48c1.89-2.21,4.22-4.39,6.21-6.49c0.91-0.95,1.96-1.93,3.09-2.1
				c0.9-0.13,1.67,0.27,2.35,0.72c1.98,1.3,8.92,5.53,8.99,8.52C400.86,219.19,395.69,225.21,393.72,227.49z"/>
			<path class="st9" d="M409.28,186.47c5.3-2.05,14.21,3.99,21.57,6.01c0,0-32.38,30.14-32.47,30.12
				c-7.08-1.25-19.57-11.02-16.46-15.92C385.23,201.43,409.28,186.47,409.28,186.47z"/>
			<path class="st13" d="M383.39,234.14c2.85,1.26,2.69,0.71,4.22-1.83c1.2-1.98,1.87-1.83,3.11-3.79c1.05-1.66,1.8-3.73,0.7-5.66
				c-1.11-1.95-5.24-3.54-7.56-4.4c-12.09-4.49-22.62-8.46-34.71-12.95c-1.2-0.45-2.51-0.91-3.68-0.69
				c-2.69,0.51-2.71,3.78-2.83,5.75c-0.15,2.34,1.31,2.84,3.62,4.25c6.22,3.8,12.58,7.42,19.11,10.74
				C368.93,227.38,379.74,232.52,383.39,234.14z"/>
			<polygon class="st22" points="436.9,313.65 434.59,337.87 444.66,337.87 442.41,313.65 			"/>
			<path class="st8" d="M403.98,429.25c-1.05,1.13-2.18,2.57-1.78,4.06c0.35,1.27,1.68,1.99,2.93,2.4
				c6.69,2.19,14.69-0.8,18.32-6.83c2.81-4.68,2.99-10.42,2.99-15.88c0-0.45-6.05-0.08-6.78,0.21c-1.6,0.63-2.6,1.91-3.75,3.14
				C411.91,420.62,407.96,424.95,403.98,429.25z"/>
			<path class="st8" d="M474.87,429.25c1.05,1.13,2.18,2.57,1.78,4.06c-0.35,1.27-1.68,1.99-2.93,2.4
				c-6.69,2.19-14.69-0.8-18.32-6.83c-2.81-4.68-2.99-10.42-2.99-15.88c0-0.45,6.05-0.08,6.78,0.21c1.6,0.63,2.6,1.91,3.75,3.14
				C466.94,420.62,470.89,424.95,474.87,429.25z"/>
		</g>
		<g>
			<g>
				<g>
					<g>
						<g>
							<g>
								<path class="st4" d="M369.32,139.8C356.09,68.9,287.9,22.15,217.01,35.38C146.12,48.61,99.37,116.8,112.59,187.69
									c10.34,55.43,35.32,86.65,81.94,112.86c21.33,11.99,42.85,88.22,42.85,88.22l88.04-16.43c0,0-11.13-76.38,4.35-95.33
									C360.98,238.85,379.66,195.22,369.32,139.8z"/>
							</g>
						</g>
					</g>
					<g>
						<g>
							<g>
								<path class="st5" d="M292.1,435.62L292.1,435.62c-24.54,4.58-48.14-11.6-52.72-36.14l-2-10.7l88.87-16.58l2,10.7
									C332.83,407.43,316.64,431.04,292.1,435.62z"/>
							</g>
						</g>
					</g>
					<g>
						<g>
							<g>
								
									<rect x="262.21" y="230.34" transform="matrix(0.984 -0.178 0.178 0.984 -50.217 52.511)" class="st23" width="10.6" height="151.51"/>
							</g>
						</g>
					</g>
					<g>
						<g>
							<g>
								<path class="st23" d="M256.08,242.52c-1.29,0.24-2.68,0-3.87-0.77l-65.93-43.05c-2.45-1.6-3.14-4.89-1.54-7.34
									c1.6-2.45,4.89-3.14,7.34-1.54l65.93,43.05c2.45,1.6,3.14,4.89,1.54,7.34C258.72,241.47,257.45,242.27,256.08,242.52z"/>
							</g>
						</g>
					</g>
					<g>
						<g>
							<g>
								<path class="st23" d="M256.08,242.52c-1.37,0.26-2.85-0.03-4.07-0.91c-2.38-1.71-2.92-5.02-1.21-7.4l45.97-63.92
									c1.71-2.38,5.02-2.92,7.4-1.21c2.38,1.71,2.92,5.02,1.21,7.4l-45.97,63.92C258.58,241.56,257.37,242.28,256.08,242.52z"/>
							</g>
						</g>
					</g>
					<g>
						<g>
							<g>
								<path class="st23" d="M302.07,178.25l-112.58,21c-2.88,0.54-5.65-1.36-6.18-4.24c-0.54-2.88,1.36-5.65,4.24-6.18l112.58-21
									c2.88-0.54,5.65,1.36,6.18,4.24C306.84,174.95,304.95,177.72,302.07,178.25z"/>
							</g>
						</g>
					</g>
				</g>
			</g>
		</g>
		<g>
			<g>
				<path class="st6" d="M659,352.67H520.23c-2.48,0-4.48-2.06-4.48-4.61v-25.52c0-2.55,2.01-4.61,4.48-4.61H659"/>
				<path class="st17" d="M660.84,355.75H520.35c-4.24,0-7.69-3.44-7.69-7.69v-25.52c0-4.24,3.44-7.69,7.69-7.69h140.49
					c1.7,0,3.07,1.38,3.07,3.07l0,0c0,1.7-1.38,3.07-3.07,3.07H520.35c-0.85,0-1.54,0.69-1.54,1.54v25.52
					c0,0.85,0.69,1.54,1.54,1.54h140.49c1.7,0,3.07,1.38,3.07,3.07l0,0C663.92,354.37,662.54,355.75,660.84,355.75z"/>
				<rect x="518.82" y="328.39" class="st4" width="140.18" height="4.61"/>
				<rect x="518.82" y="337.61" class="st4" width="140.18" height="4.61"/>
			</g>
			<g>
				<path class="st18" d="M672.22,433.83H533.45c-2.48,0-4.48-2.06-4.48-4.61v-25.52c0-2.55,2.01-4.61,4.48-4.61h138.77"/>
				<path class="st19" d="M674.06,436.91H533.57c-4.24,0-7.69-3.44-7.69-7.69v-25.52c0-4.24,3.44-7.69,7.69-7.69h140.49
					c1.7,0,3.07,1.38,3.07,3.07l0,0c0,1.7-1.38,3.07-3.07,3.07H533.57c-0.85,0-1.54,0.69-1.54,1.54v25.52
					c0,0.85,0.69,1.54,1.54,1.54h140.49c1.7,0,3.07,1.38,3.07,3.07v0C677.14,435.53,675.76,436.91,674.06,436.91z"/>
				<rect x="532.04" y="409.55" class="st20" width="140.18" height="4.61"/>
				<rect x="532.04" y="418.77" class="st20" width="140.18" height="4.61"/>
			</g>
			<g>
				<path class="st6" d="M506.21,393.25h138.77c2.48,0,4.48-2.06,4.48-4.61v-25.52c0-2.55-2.01-4.61-4.48-4.61H506.21"/>
				<path class="st5" d="M504.37,396.33h140.49c4.24,0,7.69-3.44,7.69-7.69v-25.52c0-4.24-3.44-7.69-7.69-7.69H504.37
					c-1.7,0-3.07,1.38-3.07,3.07l0,0c0,1.7,1.38,3.07,3.07,3.07h140.49c0.85,0,1.54,0.69,1.54,1.54v25.52
					c0,0.85-0.69,1.54-1.54,1.54H504.37c-1.7,0-3.07,1.38-3.07,3.07l0,0C501.29,394.95,502.67,396.33,504.37,396.33z"/>
				
					<rect x="506.21" y="368.97" transform="matrix(-1 -1.224647e-16 1.224647e-16 -1 1152.6062 742.5472)" class="st3" width="140.18" height="4.61"/>
				
					<rect x="506.21" y="378.19" transform="matrix(-1 -1.224647e-16 1.224647e-16 -1 1152.6062 760.9922)" class="st3" width="140.18" height="4.61"/>
			</g>
		</g>
		<g>
			<g>
				<g>
					<path class="st15" d="M651.91,314.5H526.14c-7.02,0-12.72-5.69-12.72-12.72v0h151.21v0
						C664.63,308.81,658.94,314.5,651.91,314.5z"/>
				</g>
				<g>
					<path class="st17" d="M603.44,307.58h-28.83c-3.2,0-5.79-2.59-5.79-5.79l0,0h40.42l0,0
						C609.23,304.98,606.64,307.58,603.44,307.58z"/>
				</g>
			</g>
			<g>
				<g>
					<path class="st16" d="M654.86,301.82l-131.71-0.07l0.03-59.92c0.01-12.17,9.88-22.04,22.05-22.03l87.62,0.05
						c12.17,0.01,22.04,9.88,22.03,22.05L654.86,301.82z"/>
				</g>
				<g>
					<path class="st6" d="M533.05,291.86l0.03-60.77c0-0.78,0.63-1.41,1.41-1.41l109.1,0.06c0.78,0,1.41,0.63,1.41,1.41l-0.03,60.77
						L533.05,291.86z"/>
				</g>
				
					<ellipse transform="matrix(0.9239 -0.3827 0.3827 0.9239 -54.9089 245.3264)" class="st16" cx="589.21" cy="260.69" rx="24.63" ry="24.63"/>
				<polygon class="st6" points="577.85,274.71 577.85,246.66 605.89,260.8 				"/>
			</g>
		</g>
	</g>
</g>
<g>
	<g class="st24">
		<g>
			<ellipse class="st3" cx="390.96" cy="396.4" rx="273.73" ry="18.66"/>
		</g>
	</g>
	<g>
		<g>
			<g>
				<path class="st17" d="M536.54,397.67H362.87c-9.24,0-16.74-7.49-16.74-16.74V76.28c0-9.24,7.49-16.74,16.74-16.74h173.67
					c9.24,0,16.74,7.49,16.74,16.74v304.65C553.28,390.17,545.78,397.67,536.54,397.67z"/>
				<rect x="369.15" y="94.27" class="st6" width="161.11" height="254.02"/>
				<path class="st16" d="M478.79,81.72h-58.17c-2.2,0-3.98-1.78-3.98-3.98v0c0-2.2,1.78-3.98,3.98-3.98h58.17
					c2.2,0,3.98,1.78,3.98,3.98v0C482.76,79.94,480.98,81.72,478.79,81.72z"/>
				<path class="st16" d="M467.91,383.44h-36.83c-4.39,0-7.95-3.56-7.95-7.95l0,0c0-4.39,3.56-7.95,7.95-7.95h36.83
					c4.39,0,7.95,3.56,7.95,7.95l0,0C475.86,379.88,472.3,383.44,467.91,383.44z"/>
			</g>
			<g>
				<g>
					<g>
						<g>
							<path class="st19" d="M399.35,282.53h107.2c2.73,0,4.94-2.33,4.94-5.2v-20.3c0-2.87-2.21-5.2-4.94-5.2h-107.2
								c-2.73,0-4.94,2.33-4.94,5.2v20.3C394.41,280.2,396.62,282.53,399.35,282.53z"/>
						</g>
					</g>
					<g>
						<g>
							
								<rect x="491.88" y="251.82" transform="matrix(-1 -1.224647e-16 1.224647e-16 -1 986.8816 534.3492)" class="st18" width="3.13" height="30.71"/>
						</g>
					</g>
					<g>
						<g>
							
								<rect x="485.29" y="251.82" transform="matrix(-1 -1.224647e-16 1.224647e-16 -1 973.7101 534.3492)" class="st18" width="3.13" height="30.71"/>
						</g>
					</g>
					<g>
						<g>
							
								<rect x="478.71" y="251.82" transform="matrix(-1 -1.224647e-16 1.224647e-16 -1 960.5387 534.3492)" class="st18" width="3.13" height="30.71"/>
						</g>
					</g>
				</g>
				<g>
					<g>
						<g>
							<path class="st6" d="M393.75,247.22H494.6c4.74,0,8.57-3.84,8.57-8.57v-8.9c0-4.74-3.84-8.57-8.57-8.57H393.75V247.22z"/>
						</g>
					</g>
					<g>
						<g>
							<path class="st5" d="M499.26,251.56H392.99c-2.4,0-4.34-1.94-4.34-4.34c0-2.4,1.94-4.34,4.34-4.34h105.84v-17.37H392.99
								c-2.4,0-4.34-1.94-4.34-4.34c0-2.4,1.94-4.34,4.34-4.34h106.27c4.55,0,8.25,3.7,8.25,8.25v18.22
								C507.52,247.86,503.81,251.56,499.26,251.56z"/>
						</g>
					</g>
					<g>
						<g>
							
								<rect x="393.75" y="228.56" transform="matrix(-1 -1.224647e-16 1.224647e-16 -1 892.3617 460.5734)" class="st4" width="104.87" height="3.46"/>
						</g>
					</g>
					<g>
						<g>
							
								<rect x="393.75" y="236.08" transform="matrix(-1 -1.224647e-16 1.224647e-16 -1 892.3617 475.6294)" class="st4" width="104.87" height="3.46"/>
						</g>
					</g>
				</g>
				<g>
					<g>
						<g>
							<path class="st6" d="M497.32,187.06h-81.43c-4.63,0-8.69,2.27-10.91,5.66c-0.69,1.05-1.2,2.21-1.49,3.44
								c-0.19,0.79-0.29,1.62-0.29,2.46c0,0.5,0.04,0.99,0.1,1.48c0.17,1.22,0.55,2.37,1.1,3.44c2.03,3.92,6.42,6.64,11.48,6.64
								h81.13c-1.85-2.26-3-4.49-3.64-6.64c-0.35-1.17-0.54-2.32-0.6-3.44c-0.08-1.36,0.02-2.68,0.26-3.94
								c0.23-1.21,0.59-2.36,1.02-3.44C494.95,190.5,496.17,188.57,497.32,187.06z"/>
						</g>
					</g>
					<g>
						<g>
							<g>
								<path class="st15" d="M500.67,183.37h-84.78c-9.25,0-16.74,6.83-16.74,15.25c0,4.21,1.87,8.02,4.9,10.78
									c3.03,2.76,7.21,4.47,11.84,4.47h84.78c-1.44-1.23-2.65-2.46-3.65-3.69h-81.13c-5.07,0-9.45-2.72-11.48-6.64
									c-0.55-1.07-0.93-2.23-1.1-3.44c-0.07-0.48-0.1-0.98-0.1-1.48c0-0.84,0.1-1.67,0.29-2.46c0.29-1.23,0.8-2.39,1.49-3.44
									c2.22-3.38,6.28-5.66,10.91-5.66h81.43C499.08,184.73,500.67,183.37,500.67,183.37z"/>
							</g>
						</g>
						<g>
							<g>
								<path class="st15" d="M404.05,209.4c-3.03-2.76-4.9-6.57-4.9-10.78c0-8.42,7.5-15.25,16.74-15.25h84.78v-3.69h-84.78
									c-11.46,0-20.79,8.5-20.79,18.94c0,10.44,9.33,18.94,20.79,18.94h84.78v-3.69h-84.78
									C411.27,213.87,407.08,212.16,404.05,209.4z"/>
							</g>
						</g>
					</g>
					<g>
						<g>
							<path class="st17" d="M493.39,203.54c-0.35-1.17-0.54-2.32-0.6-3.44H403.3c0.17,1.22,0.55,2.37,1.1,3.44H493.39z"/>
						</g>
					</g>
					<g>
						<g>
							<path class="st17" d="M494.06,192.72h-89.08c-0.69,1.05-1.2,2.21-1.49,3.44h89.55C493.27,194.95,493.63,193.8,494.06,192.72z
								"/>
						</g>
					</g>
					<polygon class="st16" points="438.22,226.03 427.64,217.72 417.06,226.03 417.06,197.07 438.22,197.07 					"/>
				</g>
				<g>
					<g>
						<g>
							<path class="st3" d="M504.11,348.06H396.9c-2.73,0-4.94-2.33-4.94-5.2v-20.3c0-2.87,2.21-5.2,4.94-5.2h107.2
								c2.73,0,4.94,2.33,4.94,5.2v20.3C509.04,345.73,506.83,348.06,504.11,348.06z"/>
						</g>
					</g>
					<g>
						<g>
							<rect x="408.45" y="317.35" class="st6" width="3.13" height="30.71"/>
						</g>
					</g>
					<g>
						<g>
							<rect x="415.03" y="317.35" class="st6" width="3.13" height="30.71"/>
						</g>
					</g>
					<g>
						<g>
							<rect x="421.62" y="317.35" class="st6" width="3.13" height="30.71"/>
						</g>
					</g>
				</g>
				<g>
					<g>
						<g>
							<path class="st6" d="M495.6,312.76H394.74c-4.74,0-8.57-3.84-8.57-8.57v-8.9c0-4.74,3.84-8.57,8.57-8.57H495.6V312.76z"/>
						</g>
					</g>
					<g>
						<g>
							<path class="st15" d="M390.08,317.1h106.27c2.4,0,4.34-1.94,4.34-4.34c0-2.4-1.94-4.34-4.34-4.34H390.51v-17.37h105.84
								c2.4,0,4.34-1.94,4.34-4.34s-1.94-4.34-4.34-4.34H390.08c-4.55,0-8.25,3.7-8.25,8.25v18.22
								C381.83,313.39,385.53,317.1,390.08,317.1z"/>
						</g>
					</g>
					<g>
						<g>
							<rect x="390.73" y="294.09" class="st17" width="104.87" height="3.46"/>
						</g>
					</g>
					<g>
						<g>
							<rect x="390.73" y="301.62" class="st17" width="104.87" height="3.46"/>
						</g>
					</g>
				</g>
			</g>
			<g>
				<g>
					
						<rect x="499.3" y="135.27" transform="matrix(1 -5.253715e-03 5.253715e-03 1 -0.7682 2.6317)" class="st17" width="2.46" height="24.51"/>
				</g>
				<g>
					<path class="st16" d="M504.64,159.76c0.01,2.23-1.79,4.05-4.02,4.06c-2.23,0.01-4.05-1.79-4.06-4.02
						c-0.01-2.23,1.79-4.05,4.02-4.06C502.81,155.73,504.63,157.53,504.64,159.76z"/>
				</g>
				<g>
					<path class="st16" d="M487.9,179.83c-25.9,7.57-45.01,8.85-72.46,0.38c-0.01,0-0.21-37.76-0.21-37.76l72.54-0.38
						C487.77,142.07,487.97,179.81,487.9,179.83z"/>
				</g>
				<g>
					<polygon class="st17" points="396.61,137.84 452.85,116.42 509.32,137.25 453.08,158.66 					"/>
				</g>
			</g>
		</g>
		<g>
			<g>
				<path class="st13" d="M277.05,241.99c0,0,8.24,44.46,28.99,34.39l10.65,15.43l24.07-10.48l-10.29-15.36l-9.36-24.38
					l-11.71-19.06C309.4,222.54,278.71,215.23,277.05,241.99z"/>
			</g>
			<g>
				<path class="st8" d="M118.86,388.67c-1.67-3.62-1.68-7.76-1.66-11.74c0.03-5.68,0.06-11.36,0.1-17.04
					c0.02-3.83,0.11-7.88,2.16-11.11c1.89-2.97,5.39-4.85,8.91-4.77c3.52,0.08,6.93,2.12,8.68,5.18c1.83,3.21,1.8,7.1,1.75,10.79
					c-0.05,3.69-0.01,7.6,1.93,10.75c2.03,3.19,5.89,4.52,9.35,3.1c1.89,8.36,5.1,18.82-4.46,22.94
					C136.9,400.52,123.11,397.87,118.86,388.67z"/>
			</g>
			<g>
				<path class="st11" d="M281.18,365.56l-135.19,2.35c-3.76,0-3.84,4.45-3.97,11.61c-0.18,9.96,2.95,15.13,7.75,18.45l176.3,0.38
					c3.96,0.09,5.44,1.01,6.55-2.5c0.72-2.28,2.55-9.16,1.72-11.58C332.18,377.98,281.18,365.56,281.18,365.56z"/>
			</g>
			<g>
				<path class="st13" d="M254.33,342.34c-3.28-0.61-6.9-0.85-9.72,0.93c-2.29,1.44-3.66,3.99-4.55,6.55
					c-0.91,2.6-1.42,5.58-0.21,8.06c1.21,2.48,4.71,3.92,6.87,2.2c1.72-1.37,1.99-4.1,3.85-5.27c1.26-0.79,2.88-0.61,4.35-0.41
					c2.81,0.39,5.62,0.77,8.43,1.16c0.13,0.02,1.96-10.33,1.24-11.31C263.35,342.59,256.45,342.73,254.33,342.34z"/>
			</g>
			<g>
				<path class="st9" d="M317.11,283.88c0,0-10.67,3.32-21.95,21.4c-5.68,9.1-0.55,18.66-6.64,34.68l-27.38,0.1l-1.32,18.22
					l23.91,1.24l-2.58,6.09c0,0,16.79,16.42,51.47,32.1c0,0,23.61-42.98,8.3-118.98L317.11,283.88z"/>
			</g>
			<g>
				<path class="st12" d="M277.47,244.52c0.19,6.59,17.03,6.55,26.99,3.76c2.38-0.66,4.36-1.48,5.63-2.41
					c1.74-1.26,1.98-7.08,7.36-4.45c5.37,2.63,1.8,12.05-3.74,10.67c0,0,0.04,2.05,0.17,5.23c0.43,10.97,1.83,35.39,5.82,35.24
					c19.92-0.74,12.12,18.29,14.02,22.69c5.58,12.93,19.58,7.52,19.37,3.69c-1.16-21.39-9.11-22.51-12.36-42.8
					c-3.14-19.55-10.09-43.81-21.21-53.1c-4.85-4.05-16.57-6.31-26.41-3.04c-2.49,0.82-4.86,2-6.96,3.6
					C280.83,227.61,277.18,234.26,277.47,244.52z M307.61,238.44c1.32-1.3,2.97-2.27,4.8-2.77L307.61,238.44z"/>
			</g>
			<g>
				<polygon class="st5" points="256.01,366.75 210.9,366.75 184.75,323.57 190.48,320.11 214.67,360.06 256.01,360.06 				"/>
			</g>
			<g>
				<path class="st14" d="M261.22,340.14l44.83,0.37c0,0,2.74-12.19,3.87-16.42c1.5-5.63,1.57-11.97,3.08-17.6
					c0.84-3.14,1.71-6.35,3.51-9.06c1.8-2.71,4.74-4.88,8-4.89c4.48-0.02,8.12,4.1,9.07,8.48c0.95,4.38-0.96,9.98-1.37,13.22
					c-1.53,12.17-3.83,20.55-6.22,30.76c-1.3,5.57-5.92,10.15-10.97,12.84c-5.17,2.77-11.36,2.58-17.22,2.32
					c-6.4-0.28-31.65-1.66-38.05-1.94L261.22,340.14z"/>
			</g>
			<g>
				<path class="st25" d="M306.51,276.81l-0.61-1.19c1.17-0.61,3.93-2.53,5.96-5.49l1.1,0.76
					C310.78,274.05,307.88,276.1,306.51,276.81z"/>
			</g>
			<g>
				<g>
					<path class="st26" d="M304.29,246.34c0,0.66,0.06,1.31,0.17,1.94c0.83,4.71,4.64,8.39,9.42,9.03c0.49,0.07,0.98,0.1,1.48,0.1
						c6.11,0,11.07-4.95,11.07-11.07s-4.95-11.07-11.07-11.07c-1.02,0-2.01,0.14-2.95,0.4c-1.84,0.51-3.48,1.47-4.8,2.77
						C305.56,240.45,304.29,243.24,304.29,246.34z"/>
				</g>
				<g>
					<circle class="st27" cx="315.36" cy="246.34" r="6.09"/>
				</g>
				<g>
					<path class="st26" d="M286.15,223.59c4.85,0.88,13.38,4.02,21.46,14.85c1.32-1.3,2.97-2.27,4.8-2.77c0,0-5.43-10.74-19.3-15.67
						C290.62,220.82,288.25,222,286.15,223.59z"/>
				</g>
			</g>
		</g>
		<g>
			<g>
				<g>
					<path class="st3" d="M573.02,286.57c-3.18-23.54-4.66-47.89,0.74-70.91c1.86-7.95,5.06-16.35,11.59-20.07
						c7.02-4,16.11-0.97,21.41,5.57s7.26,15.8,7.06,24.64c-0.2,8.84-2.33,17.46-4.28,26.03c-5.43,23.78-9.59,47.9-13.32,72.09
						c-0.93,6.05-1.84,12.11-2.73,18.16c-0.44,3-0.14,12.45-3.77,12.45c-4.16,0-4.87-8.02-5.66-11.15
						c-1.46-5.71-2.81-11.46-4.07-17.23C577.14,313.07,574.82,299.86,573.02,286.57z"/>
					<path class="st5" d="M589.58,350.83c-1.17-2.82-2.02-5.78-2.56-8.79c-0.56-3.02-0.84-6.08-1-9.13
						c-0.15-3.06-0.16-6.12-0.16-9.17c0-3.05,0.03-6.1,0.05-9.15c0.02-3.05,0.05-6.1,0.1-9.15l0.15-9.15
						c0.12-6.1,0.29-12.19,0.46-18.29c0.2-6.1,0.41-12.19,0.65-18.29l0.4-9.14l0.21-4.57l0.24-4.57c0.34-6.08,0.58-12.19,1.33-18.28
						c0.39-3.04,0.88-6.07,1.63-9.04c0.19-0.74,0.38-1.48,0.6-2.22l0.33-1.1l0.36-1.09c0.23-0.73,0.52-1.44,0.79-2.15
						c0.13-0.36,0.29-0.71,0.44-1.06l0.45-1.05c-2.13,5.73-3.17,11.76-3.65,17.8c-0.26,3.03-0.4,6.06-0.49,9.1l-0.27,9.14
						l-1.08,36.56l-1.15,36.56l-0.3,9.14c-0.11,3.04-0.2,6.08-0.16,9.12c0.01,1.52,0.06,3.03,0.15,4.55
						c0.06,0.76,0.1,1.51,0.18,2.27l0.11,1.13l0.14,1.13c0.04,0.38,0.1,0.75,0.16,1.13c0.06,0.37,0.11,0.75,0.18,1.12l0.22,1.12
						c0.04,0.19,0.07,0.37,0.11,0.56l0.13,0.55l0.26,1.11l0.3,1.1l0.15,0.55l0.17,0.54L589.58,350.83z"/>
					<path class="st5" d="M592.15,228.91c0.35-1.9,1.04-3.73,1.93-5.45c0.9-1.72,2.01-3.34,3.3-4.8c1.29-1.46,2.75-2.78,4.34-3.89
						c1.6-1.11,3.33-2.02,5.16-2.63l0.08,0.15c-0.16,0.05-0.32,0.11-0.49,0.16c0.14-0.1,0.27-0.2,0.41-0.3l0.08,0.15
						c-1.56,1.12-3.05,2.26-4.45,3.49c-1.4,1.23-2.72,2.53-3.96,3.92c-1.23,1.39-2.38,2.85-3.43,4.39
						C594.06,225.62,593.1,227.23,592.15,228.91z"/>
					<path class="st5" d="M592.94,242.63c0.53-1.42,1.32-2.74,2.25-3.95c0.93-1.21,2.02-2.3,3.21-3.26
						c1.19-0.96,2.49-1.78,3.87-2.43c1.38-0.65,2.83-1.14,4.33-1.39l0.1,0.33c-0.31,0.03-0.62,0.05-0.93,0.07
						c0.28-0.14,0.56-0.28,0.84-0.41l0.1,0.33c-1.31,0.72-2.58,1.44-3.81,2.22c-1.23,0.78-2.41,1.61-3.54,2.49
						c-1.14,0.89-2.23,1.83-3.29,2.83C595.01,240.48,594,241.54,592.94,242.63z"/>
					<path class="st5" d="M591.6,261.17c0.48-1.54,1.23-2.98,2.11-4.33c0.89-1.35,1.93-2.59,3.08-3.72c1.16-1.13,2.43-2.13,3.8-2.98
						c1.37-0.85,2.83-1.55,4.38-1.99c-1.25,1.02-2.48,1.98-3.66,2.99c-1.19,1-2.33,2.04-3.43,3.11c-1.1,1.07-2.17,2.19-3.2,3.35
						C593.65,258.74,592.65,259.95,591.6,261.17z"/>
					<path class="st5" d="M591.03,277.34c0.55-1.44,1.28-2.77,2.1-4.05c0.82-1.28,1.74-2.49,2.74-3.64c1-1.14,2.08-2.22,3.24-3.2
						c1.16-0.98,2.39-1.88,3.74-2.62c-0.92,1.23-1.9,2.36-2.87,3.49l-2.92,3.36l-2.94,3.35
						C593.11,275.14,592.12,276.26,591.03,277.34z"/>
					<path class="st5" d="M583.62,305.46c-0.65-0.86-1.2-1.71-1.78-2.54c-0.56-0.83-1.13-1.65-1.71-2.46
						c-0.58-0.81-1.17-1.61-1.77-2.41c-0.6-0.81-1.23-1.61-1.83-2.51c1.01,0.38,1.91,0.97,2.72,1.66c0.81,0.69,1.53,1.48,2.15,2.35
						c0.62,0.87,1.13,1.81,1.52,2.8C583.31,303.34,583.58,304.38,583.62,305.46z"/>
					<path class="st5" d="M583.44,286.57c-0.89-1.01-1.67-2.06-2.45-3.1c-0.78-1.04-1.54-2.08-2.3-3.12
						c-0.76-1.04-1.52-2.09-2.27-3.14c-0.75-1.06-1.5-2.13-2.19-3.29c1.16,0.69,2.18,1.56,3.13,2.48c0.95,0.93,1.82,1.95,2.6,3.02
						c0.78,1.07,1.48,2.21,2.08,3.4C582.62,284.02,583.13,285.26,583.44,286.57z"/>
					<path class="st5" d="M584.3,268.09c-0.74-1.15-1.41-2.28-2.13-3.37c-0.71-1.1-1.45-2.16-2.23-3.19
						c-0.77-1.04-1.59-2.04-2.44-3.03c-0.85-0.99-1.74-1.96-2.64-2.96l0.17-0.07c-0.07,0.15-0.14,0.3-0.21,0.44
						c-0.01-0.17,0-0.33,0-0.49l0-0.14l0.17,0.08c1.24,0.57,2.38,1.34,3.43,2.22c1.04,0.89,1.97,1.91,2.78,3.01
						c0.81,1.1,1.5,2.3,2.04,3.56C583.76,265.41,584.16,266.73,584.3,268.09z"/>
					<path class="st5" d="M585.72,248.43c-0.67-0.19-1.28-0.65-1.76-1.19c-0.49-0.53-0.86-1.14-1.22-1.71
						c-0.18-0.29-0.35-0.57-0.52-0.84l-0.27-0.4l-0.13-0.2l-0.14-0.19c-0.37-0.52-0.78-1-1.22-1.46c-0.87-0.92-1.85-1.73-2.93-2.44
						c-0.54-0.36-1.11-0.67-1.69-0.98c-0.59-0.3-1.21-0.56-1.85-0.84c0.69-0.06,1.4-0.02,2.09,0.11c0.69,0.14,1.37,0.34,2.03,0.62
						c1.31,0.57,2.51,1.4,3.5,2.45c0.13,0.13,0.24,0.27,0.36,0.4c0.11,0.14,0.24,0.27,0.34,0.42l0.32,0.44
						c0.1,0.15,0.2,0.3,0.29,0.45l0.14,0.23l0.13,0.24c0.09,0.16,0.17,0.32,0.25,0.48c0.15,0.32,0.28,0.64,0.41,0.96
						c0.25,0.63,0.47,1.25,0.75,1.83C584.87,247.4,585.22,247.94,585.72,248.43z"/>
					<path class="st5" d="M585.68,234.11c-0.78-0.94-1.48-1.86-2.2-2.75c-0.72-0.89-1.46-1.76-2.22-2.6
						c-0.76-0.84-1.55-1.66-2.36-2.47c-0.81-0.81-1.66-1.6-2.51-2.47c1.18,0.3,2.28,0.85,3.29,1.51c1.01,0.67,1.94,1.47,2.75,2.37
						c0.81,0.9,1.52,1.9,2.08,2.97C585.06,231.76,585.5,232.9,585.68,234.11z"/>
					<path class="st5" d="M587.67,220.94c-0.52-1.28-1-2.51-1.54-3.7c-0.54-1.2-1.12-2.35-1.75-3.48c-0.64-1.13-1.33-2.23-2.07-3.31
						c-0.74-1.08-1.54-2.13-2.37-3.24c1.24,0.6,2.34,1.47,3.32,2.45c0.97,0.99,1.81,2.11,2.49,3.32c0.68,1.21,1.21,2.51,1.55,3.85
						C587.63,218.18,587.8,219.56,587.67,220.94z"/>
				</g>
				<g>
					<path class="st4" d="M592.05,354.01c-8.38-41.54,6.79-93.52,38.72-121.38c7.3-6.37,17.62-12.07,26.21-7.59
						c8.26,4.3,9.76,16.13,5.92,24.62c-3.85,8.48-11.43,14.54-18.3,20.82c-24.6,22.46-42.96,51.69-52.53,83.6"/>
					<path class="st5" d="M592.06,340.16c0.71-10.48,2.74-20.88,5.86-30.95l1.22-3.76l1.33-3.72l1.43-3.69l1.52-3.65
						c2.1-4.84,4.46-9.57,7.05-14.17c2.61-4.59,5.44-9.05,8.51-13.34l2.35-3.18l2.43-3.12l2.51-3.06l2.6-2.98
						c7.01-7.87,14.88-14.97,23.5-20.98c-8.12,6.65-15.61,14-22.34,21.98l-2.48,3.03l-2.42,3.07l-2.34,3.13l-2.26,3.19
						c-2.98,4.28-5.77,8.69-8.32,13.24c-2.58,4.53-4.92,9.19-7.06,13.95l-1.56,3.58l-1.47,3.62l-1.39,3.66l-1.31,3.69
						C596.01,319.57,593.58,329.78,592.06,340.16z"/>
					<path class="st5" d="M635.28,252.32c1.25-1.25,2.69-2.3,4.23-3.19c1.54-0.88,3.19-1.59,4.89-2.12c1.7-0.53,3.46-0.87,5.23-1.01
						c1.77-0.14,3.56-0.08,5.29,0.25c-1.76,0.16-3.48,0.36-5.18,0.67c-1.7,0.31-3.37,0.71-5.01,1.21c-1.64,0.51-3.25,1.11-4.82,1.82
						C638.35,250.66,636.82,251.46,635.28,252.32z"/>
					<path class="st5" d="M624.05,269.33c1.18-1.45,2.57-2.72,4.08-3.83c1.51-1.11,3.14-2.07,4.85-2.84
						c1.71-0.78,3.5-1.38,5.33-1.78c1.83-0.4,3.7-0.61,5.57-0.55c-1.82,0.42-3.59,0.88-5.33,1.44c-1.74,0.56-3.43,1.21-5.09,1.96
						c-1.65,0.75-3.26,1.6-4.83,2.54C627.08,267.2,625.56,268.24,624.05,269.33z"/>
					<path class="st5" d="M611.69,284.67c0.7-1.35,1.69-2.56,2.82-3.6c1.14-1.04,2.43-1.92,3.82-2.59c1.39-0.68,2.88-1.16,4.4-1.41
						c1.52-0.25,3.08-0.28,4.57,0c-1.51,0.21-2.96,0.49-4.37,0.9c-1.41,0.41-2.78,0.93-4.09,1.57c-1.31,0.64-2.56,1.39-3.75,2.25
						C613.9,282.64,612.78,283.62,611.69,284.67z"/>
					<path class="st5" d="M600.9,306.35c0.99-1.31,2.12-2.51,3.31-3.63c1.2-1.12,2.47-2.15,3.81-3.11c1.34-0.95,2.73-1.82,4.18-2.58
						c1.45-0.76,2.95-1.44,4.52-1.94c-1.35,0.94-2.7,1.83-4.04,2.73c-1.34,0.9-2.66,1.82-3.98,2.75c-1.31,0.93-2.61,1.89-3.9,2.86
						C603.51,304.39,602.23,305.39,600.9,306.35z"/>
					<path class="st5" d="M597.4,302.1c0.05-1.29,0.21-2.55,0.4-3.8c0.2-1.25,0.45-2.49,0.73-3.73c0.28-1.23,0.61-2.46,0.98-3.67
						c0.37-1.21,0.78-2.42,1.3-3.6c-0.05,1.29-0.21,2.55-0.4,3.8c-0.2,1.25-0.45,2.49-0.73,3.73c-0.28,1.23-0.61,2.46-0.98,3.67
						C598.33,299.72,597.92,300.93,597.4,302.1z"/>
					<path class="st5" d="M607.64,278.11c0.07-1.09,0.25-2.15,0.47-3.2c0.22-1.05,0.49-2.08,0.79-3.11c0.3-1.02,0.65-2.04,1.03-3.04
						c0.39-1,0.82-1.99,1.36-2.94c-0.07,1.09-0.25,2.15-0.47,3.2c-0.22,1.05-0.49,2.08-0.79,3.11c-0.3,1.02-0.65,2.04-1.03,3.04
						C608.6,276.17,608.18,277.16,607.64,278.11z"/>
					<path class="st5" d="M619.02,259.05c-0.03-1.54,0.15-3.07,0.47-4.58c0.33-1.5,0.8-2.98,1.4-4.4c0.6-1.42,1.33-2.79,2.19-4.07
						c0.86-1.28,1.83-2.48,2.96-3.52c-0.74,1.34-1.48,2.66-2.16,3.99c-0.68,1.33-1.32,2.68-1.9,4.06c-0.58,1.37-1.11,2.77-1.59,4.19
						C619.9,256.14,619.47,257.58,619.02,259.05z"/>
					<path class="st5" d="M630.72,248.62c-0.05-1.46,0.17-2.92,0.56-4.33c0.39-1.41,0.96-2.78,1.69-4.06
						c0.73-1.28,1.61-2.47,2.62-3.54c1.02-1.06,2.16-1.99,3.44-2.7c-0.97,1.09-1.89,2.16-2.73,3.3c-0.84,1.13-1.61,2.3-2.3,3.52
						c-0.69,1.22-1.3,2.48-1.84,3.78C631.61,245.89,631.15,247.23,630.72,248.62z"/>
				</g>
				<g>
					<path class="st4" d="M571.17,308.35c-4.45-7.56-9.97-14.79-17.56-19.19c-6.31-3.66-13.6-5.12-20.71-6.75
						c-2.34-0.54-4.85-1.21-6.37-3.07c-1.16-1.43-1.53-3.36-1.5-5.2c0.08-4.81,2.72-9.38,6.48-12.38c3.76-3.01,8.53-4.56,13.32-5.02
						c9.85-0.96,20.05,2.68,27.07,9.66c4.95,4.92,8.28,11.29,10.41,17.93c2.13,6.65,3.12,13.6,3.91,20.53
						c0.93,8.16,1.59,16.35,1.8,24.56c0.2,7.89,0.84,17.06-1.03,24.76c-1.44-0.22-1.99-8.89-2.37-10.72
						c-0.84-4.11-1.91-8.18-3.19-12.17C578.87,323.3,575.43,315.59,571.17,308.35z"/>
					<path class="st5" d="M585.99,349.14l0.09-1.7c0.01-0.28,0.03-0.57,0.04-0.85l0.01-0.85c0-0.57,0.03-1.14,0.02-1.7l-0.04-1.7
						c0-0.28-0.02-0.57-0.03-0.85l-0.05-0.85c-0.03-0.57-0.06-1.13-0.12-1.7l-0.15-1.69l-0.2-1.69l-0.1-0.84l-0.12-0.84
						c-0.08-0.56-0.16-1.12-0.25-1.68c-0.19-1.12-0.37-2.24-0.6-3.35c-0.21-1.11-0.45-2.22-0.69-3.33
						c-0.12-0.55-0.25-1.11-0.38-1.66c-0.13-0.55-0.26-1.1-0.4-1.65c-1.09-4.4-2.32-8.78-3.61-13.14
						c-1.29-4.35-2.67-8.67-4.59-12.75c-0.47-1.02-0.99-2.02-1.53-3.01c-0.56-0.97-1.12-1.95-1.76-2.87
						c-1.25-1.86-2.67-3.61-4.22-5.23c-3.11-3.24-6.78-5.93-10.74-8.08c-7.95-4.25-17.09-6.3-26.18-5.96
						c0.57-0.04,1.13-0.09,1.7-0.12c0.57-0.02,1.14-0.06,1.71-0.07c0.57,0,1.14-0.02,1.71,0l0.86,0.02
						c0.29,0.01,0.57,0.03,0.85,0.04c2.28,0.12,4.55,0.39,6.8,0.81c4.49,0.87,8.88,2.36,12.97,4.45c2.05,1.04,4.01,2.25,5.87,3.61
						c1.86,1.36,3.62,2.86,5.24,4.5c1.61,1.65,3.08,3.45,4.37,5.36c1.3,1.91,2.42,3.93,3.4,6.02c0.97,2.09,1.81,4.23,2.56,6.39
						c0.75,2.17,1.42,4.35,2.04,6.55c1.23,4.39,2.44,8.78,3.43,13.24c0.5,2.23,0.96,4.46,1.33,6.72c0.2,1.12,0.35,2.26,0.51,3.39
						c0.08,0.57,0.14,1.13,0.2,1.7l0.1,0.85c0.03,0.28,0.05,0.57,0.08,0.85l0.14,1.71l0.09,1.71c0.04,0.57,0.04,1.14,0.05,1.71
						l0.02,0.86c0.01,0.29,0.01,0.57,0,0.86C586.41,344.6,586.25,346.88,585.99,349.14z"/>
					<path class="st5" d="M580.51,301.76c-0.31-0.76-0.45-1.57-0.51-2.38c-0.05-0.81,0-1.64,0.15-2.44c0.15-0.8,0.39-1.59,0.73-2.33
						c0.34-0.74,0.77-1.44,1.33-2.04c-0.2,0.79-0.42,1.54-0.6,2.3c-0.19,0.75-0.36,1.5-0.5,2.25c-0.14,0.75-0.26,1.51-0.35,2.28
						C580.67,300.17,580.61,300.95,580.51,301.76z"/>
					<path class="st5" d="M575.12,289.31c-0.39-0.76-0.62-1.6-0.74-2.45c-0.12-0.85-0.11-1.72,0-2.57c0.11-0.85,0.33-1.69,0.66-2.49
						c0.33-0.79,0.76-1.54,1.34-2.18c-0.21,0.83-0.43,1.62-0.6,2.41c-0.18,0.79-0.32,1.58-0.42,2.38c-0.1,0.8-0.17,1.6-0.2,2.41
						C575.12,287.63,575.12,288.45,575.12,289.31z"/>
					<path class="st5" d="M567.26,279.63c-0.6-0.74-1.04-1.61-1.36-2.51c-0.32-0.91-0.51-1.86-0.58-2.82
						c-0.07-0.96-0.01-1.93,0.18-2.87c0.19-0.94,0.51-1.86,1-2.68c-0.1,0.95-0.2,1.86-0.23,2.77c-0.04,0.91-0.03,1.81,0.03,2.71
						c0.06,0.9,0.18,1.79,0.34,2.69C566.81,277.82,567.03,278.71,567.26,279.63z"/>
					<path class="st5" d="M556.89,272.06c-0.22-0.84-0.39-1.66-0.6-2.47c-0.2-0.81-0.41-1.61-0.65-2.4
						c-0.24-0.79-0.49-1.57-0.77-2.36c-0.27-0.79-0.57-1.57-0.85-2.4c0.63,0.61,1.13,1.32,1.55,2.08c0.42,0.76,0.76,1.57,1.01,2.4
						c0.25,0.83,0.41,1.69,0.47,2.56C557.11,270.34,557.08,271.21,556.89,272.06z"/>
					<path class="st5" d="M546.47,269.99c-0.32-0.82-0.63-1.6-1-2.35c-0.37-0.75-0.78-1.46-1.24-2.14
						c-0.46-0.68-0.97-1.33-1.52-1.95c-0.55-0.62-1.16-1.21-1.8-1.81c0.85,0.25,1.63,0.7,2.33,1.25c0.7,0.56,1.31,1.22,1.81,1.97
						c0.5,0.74,0.89,1.56,1.14,2.41C546.43,268.22,546.55,269.11,546.47,269.99z"/>
					<path class="st5" d="M542.11,274.52c-0.67,0.44-1.28,0.79-1.86,1.17c-0.58,0.37-1.14,0.75-1.68,1.14
						c-0.54,0.39-1.07,0.8-1.61,1.24c-0.54,0.44-1.07,0.91-1.69,1.4c0.04-0.8,0.34-1.55,0.76-2.21c0.42-0.66,0.98-1.24,1.62-1.7
						c0.64-0.46,1.36-0.81,2.12-1C540.54,274.36,541.34,274.31,542.11,274.52z"/>
					<path class="st5" d="M550.86,276.59c-0.78,0.3-1.51,0.59-2.22,0.93c-0.71,0.34-1.38,0.72-2.03,1.14
						c-0.65,0.42-1.26,0.89-1.86,1.4c-0.6,0.51-1.16,1.06-1.74,1.66c0.23-0.8,0.66-1.54,1.19-2.19c0.53-0.65,1.17-1.22,1.88-1.68
						c0.71-0.46,1.49-0.82,2.3-1.04C549.19,276.58,550.03,276.49,550.86,276.59z"/>
					<path class="st5" d="M559.15,283.18c-0.67,0.3-1.27,0.52-1.84,0.75c-0.58,0.23-1.13,0.47-1.67,0.71
						c-0.55,0.25-1.09,0.5-1.64,0.78c-0.56,0.27-1.12,0.57-1.79,0.87c0.16-0.72,0.56-1.33,1.05-1.85c0.49-0.52,1.09-0.93,1.75-1.22
						c0.65-0.29,1.36-0.46,2.08-0.48C557.79,282.72,558.51,282.83,559.15,283.18z"/>
					<path class="st5" d="M567.26,287.32c-0.75,0.02-1.45,0.07-2.14,0.18c-0.68,0.11-1.35,0.28-1.99,0.5
						c-0.64,0.22-1.27,0.5-1.87,0.84c-0.61,0.33-1.19,0.73-1.8,1.17c0.28-0.7,0.77-1.31,1.35-1.81c0.58-0.5,1.27-0.88,1.99-1.13
						c0.73-0.25,1.5-0.37,2.27-0.34C565.84,286.77,566.6,286.94,567.26,287.32z"/>
					<path class="st5" d="M573.72,296.37c-0.65-0.14-1.25-0.28-1.85-0.38c-0.6-0.11-1.19-0.18-1.79-0.23
						c-0.6-0.05-1.2-0.06-1.8-0.05c-0.61,0.01-1.23,0.05-1.89,0.09c0.52-0.42,1.14-0.69,1.78-0.85c0.65-0.16,1.32-0.22,1.99-0.16
						c0.67,0.05,1.33,0.21,1.94,0.47C572.7,295.51,573.27,295.87,573.72,296.37z"/>
					<path class="st5" d="M575.54,302.84c-0.47-0.05-0.87-0.12-1.27-0.17c-0.4-0.05-0.78-0.1-1.17-0.13
						c-0.39-0.03-0.77-0.06-1.17-0.07c-0.4-0.02-0.81-0.02-1.28-0.06c0.32-0.35,0.74-0.57,1.17-0.71c0.44-0.13,0.91-0.18,1.37-0.14
						c0.46,0.04,0.91,0.17,1.32,0.38C574.92,302.15,575.29,302.44,575.54,302.84z"/>
				</g>
			</g>
			<path class="st16" d="M606.97,398.13c-0.01,0.01-34.66,0.01-34.68,0c-12.57-11.37-9.23-53.14-9.23-53.14h53.14
				C616.2,344.99,619.93,387.93,606.97,398.13z"/>
		</g>
	</g>
</g>
</svg>
