<?xml version="1.0" encoding="utf-8"?>
<!-- Generator: Adobe Illustrator 25.4.1, SVG Export Plug-In . SVG Version: 6.00 Build 0)  -->
<svg version="1.1" id="Layer_1" xmlns="http://www.w3.org/2000/svg" xmlns:xlink="http://www.w3.org/1999/xlink" x="0px" y="0px"
	 viewBox="0 0 784.71 473.94" style="enable-background:new 0 0 784.71 473.94;" xml:space="preserve">
<style type="text/css">
	.st0{display:none;}
	.st1{display:inline;opacity:0.2;fill:#8FC3DF;}
	.st2{display:inline;}
	.st3{fill:#8FC3DF;}
	.st4{fill:#BDE0F2;}
	.st5{fill:#62A0C2;}
	.st6{fill:#E9F7FE;}
	.st7{fill:#EAC2A6;}
	.st8{fill:#B5762A;}
	.st9{fill:#FEC666;}
	.st10{fill:#EAB65D;}
	.st11{fill:#F09E20;}
	.st12{fill:#806A5B;}
	.st13{fill:#FDD4B6;}
	.st14{fill:#FFCE7D;}
	.st15{fill:#3664A7;}
	.st16{fill:#547EBC;}
	.st17{fill:#7FA1D3;}
	.st18{fill:#FEE78F;}
	.st19{fill:#F0C319;}
	.st20{fill:#FDD740;}
	.st21{opacity:0.2;}
	.st22{fill:none;}
	.st23{fill:#FFFFFF;}
</style>
<g class="st0">
	<path class="st1" d="M718.74,422.98c0.01-0.05,0.02-0.11,0.02-0.16c0-10.43-160.88-18.88-359.33-18.88S0.1,412.39,0.1,422.82
		c0,5.81,49.94,11,128.5,14.47c1.18,14.9,31,26.83,67.62,26.83c33.52,0,61.34-9.99,66.72-23.11c30.7,0.45,63.06,0.69,96.49,0.69
		c53.55,0,104.35-0.62,150.01-1.72c-2.55,2.1-3.91,4.29-3.91,6.55c0,15.33,62.41,27.75,139.4,27.75s139.4-12.42,139.4-27.75
		C784.32,436.59,758.12,427.88,718.74,422.98z"/>
	<g class="st2">
		<g>
			<path class="st3" d="M712.67,100.31H90.77V44.65c0-24.48,19.84-44.32,44.32-44.32h533.25c24.48,0,44.32,19.84,44.32,44.32V100.31
				z"/>
			<path class="st4" d="M668.34,426.26H135.09c-24.48,0-44.32-19.84-44.32-44.32V100.31h621.9v281.62
				C712.67,406.41,692.82,426.26,668.34,426.26z"/>
			<circle class="st5" cx="168.75" cy="52.32" r="26"/>
			<circle class="st5" cx="248.74" cy="52.32" r="26"/>
			<circle class="st5" cx="328.73" cy="52.32" r="26"/>
			
				<ellipse transform="matrix(0.7071 -0.7071 0.7071 0.7071 -68.9256 362.1706)" class="st6" cx="402.72" cy="264.29" rx="129.98" ry="129.98"/>
			<polygon class="st4" points="352.72,334.27 352.72,194.3 492.7,263.29 			"/>
		</g>
		<g>
			<rect x="190.23" y="327.55" class="st7" width="15.34" height="19.44"/>
			<path class="st8" d="M215.11,455.15c2.63,0.92,5.51,1.32,8.23,0.7c2.72-0.63,5.25-2.37,6.44-4.9c1.19-2.53,0.8-5.82-1.22-7.74
				c-1.94-1.86-4.85-2.17-7.53-2.38c-3.36-0.27-6.73-0.53-10.09-0.8c-3.83-0.3-6.77,3.78-5.67,7.57
				C206.32,451.2,211.91,454.03,215.11,455.15z"/>
			<path class="st7" d="M190.22,336.16c0,0-0.68,4.78-5.97,4.78l-0.34,19.44h27.29l-0.34-19.44c0,0-4.09,0.68-5.29-4.78H190.22z"/>
			<path class="st9" d="M170.48,417.56c3.47,0.96,6.71-1.25,9.6-4.33c2.36-2.52,2.27-6.21,2.25-6.28c-0.43-1.35-4.36-3.48-6.99-4.23
				c-11.13-3.2-6.55-6.08-17.68-9.28c0,0-10.08,4.82-4.42,12.89C153.32,406.44,159.52,414.53,170.48,417.56z"/>
			<path class="st9" d="M172.37,364.48c2.76-4.08,6.84-7.84,7.18-12.56c0.27-3.83-1.77-8.56-6.45-8.12
				c-6.59,0.62-10.53,8.07-13.22,13.61c-2.4,4.93-2.74,7.59-4.47,12.8c-0.73,2.22-4.95,30.55-3.9,30.67
				c6.41,7.08,14.06,1.96,14.06,1.96c0.6-4.35-0.37-12.3,0.24-16.65C166.85,378.69,167.96,371,172.37,364.48z"/>
			<polygon class="st10" points="169.17,437.18 225.75,437.18 226.43,407.44 168.52,407.44 			"/>
			<path class="st11" d="M168.09,416.73c-3.38-1.85-6.83-3.71-10.6-4.51c-3.77-0.79-7.98-0.37-11,2.03
				c-3.88,3.08-4.89,8.89-3.18,13.53s5.69,8.18,10.11,10.4c4.42,2.22,9.32,3.3,14.16,4.36c13.06,2.85,26.12,5.71,39.17,8.56
				c1.66-3.24,6.02-8.41,3.58-11.44c-2.5-3.1-10.22-5.46-13.78-7.4C187.07,427.09,177.58,421.91,168.09,416.73z"/>
			<path class="st8" d="M181.78,438.36c-3.01-0.58-6.41-1.05-8.6,1.18c-2.36,2.41-2.16,7.32-0.08,10.51
				c2.08,3.19,5.54,4.77,8.79,4.92c3.25,0.15,6.35-0.93,9.34-2.13c1.91-0.76,4.02-1.83,4.57-4.15c0.42-1.76-0.24-3.79-1.3-5.29
				C191.29,438.87,186.15,439.21,181.78,438.36z"/>
			<path class="st11" d="M231.6,416.73c3.38-1.85,6.83-3.71,10.6-4.51c3.77-0.79,7.98-0.37,11,2.03c3.88,3.08,4.89,8.89,3.18,13.53
				c-1.71,4.65-5.69,8.18-10.11,10.4c-4.42,2.22-9.32,3.3-14.16,4.36c-13.06,2.85-26.12,5.71-39.17,8.56
				c-1.66-3.24-6.02-8.41-3.58-11.44c2.5-3.1,10.22-5.46,13.78-7.4C212.62,427.09,222.11,421.91,231.6,416.73z"/>
			<path class="st9" d="M226.4,419.52c-3.45,1.01-6.74-0.22-9.67-3.25c-2.4-2.48-2.36-6.17-2.34-6.25c0.41-1.36,4.31-3.54,6.92-4.34
				c11.08-3.37,3.51-6.09,14.58-9.46c0,0,10.13,0.07,8.17,10.54C244.04,406.89,237.32,416.33,226.4,419.52z"/>
			<path class="st9" d="M222.32,364.45c-2.67-4.14-6.68-7.98-6.91-12.71c-0.19-3.83,1.95-8.52,6.62-7.98
				c6.58,0.76,10.36,8.29,12.93,13.88c2.29,4.98,3.22,10.86,4.85,18.05c0.52,2.28,5.63,29.01,4.58,29.11
				c-6.55,6.94-15.08,0.79-15.08,0.79c-0.51-4.36-0.37-14.94-0.88-19.3C227.54,378.78,226.59,371.06,222.32,364.45z"/>
			<path class="st9" d="M223.45,397.93c-0.2,4.73,0.11,9.41,0.6,14.07c0.19,1.85,0.42,3.71,0.65,5.56h-54.36
				c0.24-1.85,0.48-3.71,0.68-5.56c0.51-4.66,0.84-9.34,0.64-14.07c-0.27-6.43-1.37-12.65-2.16-19
				c-1.38-11.18-0.87-22.83,0.41-34.01c4.74-2.13,9.24-3.39,14.26-3.91c0.18,7.2,6.06,12.98,13.3,12.98c0.03,0,0.06,0,0.08,0
				c0.03,0,0.06,0,0.09,0c7.24,0,13.12-5.78,13.29-12.98c5.03,0.51,9.52,1.78,14.27,3.91c1.28,11.18,1.79,22.83,0.4,34.01
				C224.82,385.27,223.72,391.5,223.45,397.93z"/>
			<path class="st5" d="M225.75,421.81v2.94c0,1.45-1.17,2.62-2.62,2.62h-52c-1.44,0-2.62-1.17-2.62-2.62v-2.94H225.75z"/>
			<path class="st12" d="M166.87,333.15c-2.29-3.61-3.72-7.72-4.25-11.99c-1.39-11.09,2.77-22.81,9.81-31.22
				c4.86-5.81,11.58-10.22,18.99-11.95c6.66-1.55,15.9-1.07,19.61,5.76c2.32-1.13,4.59-2.28,7.09-1.38
				c2.31,0.83,4.36,2.52,5.93,4.37c2.21,2.61,3.68,5.76,4.93,8.94c3.66,9.29,6.28,19.42,4.27,29.42c-0.73,3.62-2.25,7.2-4.73,9.97
				c-3.04,3.4-6.83,3.13-11.17,3.25c-9.06,0.25-18.15-0.82-27.19,0.11c-0.83,0.09-1.66,0.17-2.49,0.25
				c-5.52,0.52-14.33,2.31-18.34-2.24C168.43,335.4,167.61,334.3,166.87,333.15z"/>
			<path class="st13" d="M169.19,300.63l3.75,25.94c1.79,12.4,12.42,21.6,24.96,21.6h0c12.53,0,23.16-9.2,24.96-21.6l3.75-25.94
				H169.19z"/>
			<path class="st12" d="M206.86,304.54c2.09,5.27,7.43,9.43,13.08,9.03c5.66-0.4,10.64-6.24,9.2-11.72
				c-0.98-3.73-4.43-6.4-8.12-7.51c-3.69-1.12-7.63-0.95-11.47-0.77c-8.77,0.4-17.55,0.81-26.32,1.21
				c-4.29,0.2-8.66,0.41-12.67,1.95c-4.01,1.54-4.75,6.78-4.91,11.07C165.15,321.78,200.46,317,206.86,304.54z"/>
			<path class="st3" d="M228.52,377.98h-62.78c-2,0-3.53,1.78-3.23,3.76l6.01,40.07h57.23l6.01-40.07
				C232.05,379.76,230.52,377.98,228.52,377.98z"/>
		</g>
		<g>
			<g>
				
					<rect x="66.76" y="181.79" transform="matrix(0.9984 0.0571 -0.0571 0.9984 10.8853 -3.8307)" class="st7" width="11.34" height="13.31"/>
			</g>
			<g>
				<path class="st13" d="M34.6,148.44c0,0-0.42,68.36,48.39,31.29l-3.12-42.42L34.6,148.44z"/>
			</g>
			<g>
				<path class="st12" d="M23.98,418.59c-0.59,0.36-1.2,0.76-1.51,1.37c-0.54,1.06,0.01,2.38,0.84,3.24
					c1.64,1.7,12.85,1.18,15.21,1.39c3.86,0.35,7.74,0.15,11.61-0.04c1.25-0.06,2.52-0.13,3.72-0.49c1.2-0.37,2.35-1.07,2.99-2.14
					c0.86-1.43,0.7-3.23,0.51-4.88c-0.16-1.4-0.32-2.8-0.48-4.21c-0.07-0.61-0.17-1.28-0.64-1.67c-0.4-0.33-0.97-0.37-1.49-0.39
					c-3.32-0.13-6.71-0.49-10.02-0.41c-1.44,0.04-1.22,0.73-1.97,1.74L23.98,418.59z"/>
			</g>
			<g>
				<path class="st11" d="M44.9,291.54c0.24-3.67-0.09-9.78,2.72-10.98c2.47-1.05,12.04,2.33,14.41,2.96
					c2.29,0.61,27.85,1.38,25.53,6.95c2.9-6.96-0.49,10.64-4.97,16.71c-1.46,1.98-3.98,6.4-3.98,6.4s-12.28,41.66-12.42,41.72
					c-8.23,3.49-18.42,3.56-23.64-3.57c-0.1-0.13,4.28-47.56,4.28-47.56C44.13,300.02,44.58,296.51,44.9,291.54z"/>
			</g>
			<g>
				<path class="st9" d="M78.76,192.16c4.59,1.92,7.73,6.38,9.26,11.12c1.53,4.74,1.67,9.79,1.79,14.77
					c0.62,24.82,2.6,43.99-0.35,68.65c-0.35,2.95-0.94,8.91-0.94,8.91s-16.67,1.26-19.71,1.22c-10.26-0.15-14.28-0.39-24.46-1.61
					c-1.08-17.3-0.85-29.37-1.93-46.67c-0.69-11.08-1.34-22.47,2.07-33.04c2.31-7.17,6.86-13.93,13.23-18.09
					c3-1.96,5.97-3.28,9.53-2.88C71.35,195,75.14,194.3,78.76,192.16z"/>
			</g>
			<g>
				<path class="st13" d="M5.37,227.12c-0.96-1.46-1.68-3.5-0.56-4.85c0.6-0.72,1.59-1.01,2.53-0.98c0.94,0.03,1.84,0.35,2.72,0.66
					c3.87,1.37,7.74,2.75,11.62,4.12c-0.9,3.44,0.84,10-3.96,9.16C13.53,234.5,7.64,230.52,5.37,227.12z"/>
			</g>
			<g>
				<path class="st13" d="M20.41,225.51c-0.66-0.19-1.35-0.37-2.02-0.21c-0.67,0.16-1.22,0.66-1.64,1.21
					c-1.69,2.26-1.53,6.49,0.58,8.37c0.95,0.85,2.34,0.65,3.51,1.13c6.43,2.67,12.86,5.35,19.29,8.02c0.8,0.33,1.65,0.68,2.52,0.6
					c1.38-0.11,2.47-1.24,3.14-2.44c0.98-1.74,1.4-3.87,1.1-5.85c-0.18-1.17-0.7-0.92-1.69-1.38c-1.11-0.53-2.22-1.06-3.35-1.56
					c-4.42-2-8.94-3.8-13.53-5.39C25.72,227.1,23.08,226.27,20.41,225.51z"/>
			</g>
			<g>
				<path class="st14" d="M83.27,217.32c0.24-2.74,0.45-5.59-0.54-8.16c-1.84-4.8-8.31-7.22-12.76-4.64
					c-3.78,2.19-5.88,6.65-6.55,10.97c-1.87,12.04-3.58,25.8-5.53,38.44c0,0,7.48,11.88,18.66,3.42
					C76.8,257.17,82.13,230.41,83.27,217.32z"/>
			</g>
			<g>
				<path class="st14" d="M62,258.04c18.41-2.58,7.47-17.69,7.47-17.69l-22.78-7.28c-4.56,0.43-5.23,4.17-5.95,6.19
					c-1.53,4.28-3.16,6.15,0.2,10.42L62,258.04z"/>
			</g>
			<g>
				<path class="st12" d="M51.97,154.66c-0.55,2.28,0.49,4.86,2.47,6.11c1.98,1.25,4.76,1.09,6.58-0.38
					c1.27-1.03,2.12-2.62,3.64-3.22c1.82-0.73,4.05,0.38,4.89,2.16c0.84,1.77,0.46,3.96-0.61,5.6c-1.07,1.65-2.74,2.82-4.49,3.7
					c3.35,4.72,7.8,8.54,12.2,12.3c0.92,0.78,1.87,1.59,3.03,1.93c1.93,0.57,4-0.25,5.71-1.31c4.04-2.5,7.23-6.55,8.12-11.21
					c0.88-4.67-0.8-9.88-4.62-12.7c4.66-2.71,7.33-8.47,6.39-13.77s-5.43-9.8-10.73-10.74c-1.17-0.21-2.51-0.34-3.19-1.31
					c-0.54-0.77-0.45-1.8-0.58-2.73c-0.46-3.39-3.85-5.61-7.15-6.51c-4.95-1.36-10.41-0.75-14.94,1.67
					c-4.53,2.42-8.07,6.61-9.7,11.48c-4.05-3.23-9.95-3.96-14.66-1.82c-4.72,2.15-8.03,7.08-8.25,12.26
					c-0.11,2.62,0.57,5.35,2.24,7.37c1.5,1.81,3.55,2.62,5.83,2.9c1.96,0.25,3.68,0.92,5.62,1.31c2.13,0.43,4.36,0.37,6.46-0.14
					C47.42,157.31,51.62,156.08,51.97,154.66z"/>
			</g>
			<g>
				
					<rect x="11.1" y="206.84" transform="matrix(0.3706 -0.9288 0.9288 0.3706 -196.623 151.5226)" class="st15" width="4.77" height="27.98"/>
			</g>
			<g>
				<path class="st11" d="M56.8,412.96l-13.93-0.97c0,0-0.44-60.13-0.32-60.25c7.84-8.32,18.64-8.72,24.29,1.3
					C66.92,353.17,56.8,412.96,56.8,412.96z"/>
			</g>
		</g>
		<g>
			<g>
				<g>
					<g>
						<path class="st6" d="M761.5,441.58H638.56c-7,0-13.12-3.77-16.47-9.38c-1.04-1.74-1.81-3.66-2.25-5.71
							c-0.29-1.31-0.44-2.68-0.44-4.08c0-0.83,0.05-1.64,0.15-2.45c0.26-2.02,0.83-3.93,1.67-5.71c3.07-6.5,9.69-11.01,17.34-11.01
							h122.5c-2.79,3.74-4.53,7.44-5.49,11.01c-0.52,1.94-0.81,3.85-0.91,5.71c-0.12,2.26,0.04,4.44,0.4,6.52
							c0.35,2,0.88,3.91,1.54,5.71C757.93,435.88,759.77,439.06,761.5,441.58z"/>
					</g>
					<g>
						<g>
							<path class="st16" d="M766.57,447.69H638.56c-13.96,0-25.28-11.32-25.28-25.28c0-6.98,2.83-13.3,7.4-17.87
								s10.89-7.4,17.87-7.4h128.01c-2.18,2.04-4,4.08-5.51,6.12h-122.5c-7.65,0-14.27,4.51-17.34,11.01
								c-0.84,1.77-1.41,3.69-1.67,5.71c-0.1,0.8-0.15,1.62-0.15,2.45c0,1.4,0.15,2.76,0.44,4.08c0.44,2.04,1.21,3.97,2.25,5.71
								c3.35,5.61,9.47,9.38,16.47,9.38H761.5C764.16,445.43,766.57,447.69,766.57,447.69z"/>
						</g>
						<g>
							<path class="st16" d="M620.69,404.54c-4.57,4.57-7.4,10.89-7.4,17.87c0,13.96,11.32,25.28,25.28,25.28h128.01v6.11H638.56
								c-17.31,0-31.39-14.08-31.39-31.39c0-17.31,14.08-31.39,31.39-31.39h128.01v6.12H638.56
								C631.58,397.14,625.26,399.97,620.69,404.54z"/>
						</g>
					</g>
					<g>
						<path class="st4" d="M755.56,414.26c-0.52,1.94-0.81,3.85-0.91,5.71h-135.1c0.26-2.02,0.83-3.93,1.67-5.71H755.56z"/>
					</g>
					<g>
						<path class="st4" d="M756.59,432.2h-134.5c-1.04-1.74-1.81-3.66-2.25-5.71h135.21C755.4,428.49,755.93,430.41,756.59,432.2z"
							/>
					</g>
				</g>
				<g>
					<g>
						<path class="st6" d="M754.16,316.01H631.22c-7,0-13.12-3.77-16.47-9.38c-1.04-1.74-1.81-3.66-2.25-5.71
							c-0.29-1.31-0.44-2.68-0.44-4.08c0-0.83,0.05-1.64,0.15-2.45c0.26-2.02,0.83-3.93,1.67-5.71c3.07-6.5,9.69-11.01,17.34-11.01
							h122.5c-2.79,3.74-4.53,7.44-5.49,11.01c-0.52,1.94-0.81,3.85-0.91,5.71c-0.12,2.26,0.04,4.44,0.4,6.52
							c0.35,2,0.88,3.91,1.54,5.71C750.59,310.31,752.43,313.5,754.16,316.01z"/>
					</g>
					<g>
						<g>
							<path class="st17" d="M759.23,322.13H631.22c-13.96,0-25.28-11.32-25.28-25.28c0-6.98,2.83-13.3,7.4-17.87
								s10.89-7.4,17.87-7.4h128.01c-2.18,2.04-4,4.08-5.51,6.12h-122.5c-7.65,0-14.27,4.51-17.34,11.01
								c-0.84,1.77-1.41,3.69-1.67,5.71c-0.1,0.8-0.15,1.62-0.15,2.45c0,1.4,0.15,2.76,0.44,4.08c0.44,2.04,1.21,3.97,2.25,5.71
								c3.35,5.61,9.47,9.38,16.47,9.38h122.94C756.82,319.87,759.23,322.13,759.23,322.13z"/>
						</g>
						<g>
							<path class="st17" d="M613.35,278.98c-4.57,4.57-7.4,10.89-7.4,17.87c0,13.96,11.32,25.28,25.28,25.28h128.01v6.12H631.22
								c-17.31,0-31.39-14.08-31.39-31.39c0-17.31,14.08-31.39,31.39-31.39h128.01v6.11H631.22
								C624.24,271.58,617.92,274.41,613.35,278.98z"/>
						</g>
					</g>
					<g>
						<path class="st4" d="M748.22,288.7c-0.52,1.94-0.81,3.85-0.91,5.71h-135.1c0.26-2.02,0.83-3.93,1.67-5.71H748.22z"/>
					</g>
					<g>
						<path class="st4" d="M749.25,306.64h-134.5c-1.04-1.74-1.81-3.66-2.25-5.71h135.21C748.06,302.93,748.6,304.84,749.25,306.64z
							"/>
					</g>
				</g>
				<g>
					<g>
						<path class="st18" d="M774.55,378.8H614.91c-7,0-13.12-3.77-16.47-9.38c-1.04-1.74-1.81-3.66-2.25-5.71
							c-0.29-1.31-0.44-2.68-0.44-4.08c0-0.83,0.05-1.64,0.15-2.45c0.26-2.02,0.83-3.93,1.67-5.71c3.07-6.5,9.69-11.01,17.34-11.01
							H774.1c-2.79,3.74-4.53,7.44-5.49,11.01c-0.52,1.94-0.81,3.85-0.91,5.71c-0.12,2.26,0.04,4.44,0.4,6.52
							c0.35,2,0.88,3.91,1.54,5.71C770.98,373.1,772.82,376.28,774.55,378.8z"/>
					</g>
					<g>
						<g>
							<path class="st19" d="M779.61,384.91h-164.7c-13.96,0-25.28-11.32-25.28-25.28c0-6.98,2.83-13.3,7.4-17.87
								s10.89-7.4,17.87-7.4h164.7c-2.18,2.04-4,4.08-5.51,6.11H614.91c-7.65,0-14.27,4.51-17.34,11.01
								c-0.84,1.77-1.41,3.69-1.67,5.71c-0.1,0.8-0.15,1.62-0.15,2.45c0,1.4,0.15,2.76,0.44,4.08c0.44,2.04,1.21,3.97,2.25,5.71
								c3.35,5.61,9.47,9.38,16.47,9.38h159.63C777.2,382.65,779.61,384.91,779.61,384.91z"/>
						</g>
						<g>
							<path class="st19" d="M597.04,341.76c-4.57,4.57-7.4,10.89-7.4,17.87c0,13.96,11.32,25.28,25.28,25.28h164.7v6.12h-164.7
								c-17.31,0-31.39-14.08-31.39-31.39c0-17.31,14.08-31.39,31.39-31.39h164.7v6.12h-164.7
								C607.93,334.36,601.61,337.19,597.04,341.76z"/>
						</g>
					</g>
					<g>
						<path class="st20" d="M768.61,351.48c-0.52,1.94-0.81,3.85-0.91,5.71H595.91c0.26-2.02,0.83-3.93,1.67-5.71H768.61z"/>
					</g>
					<g>
						<path class="st20" d="M769.63,369.42H598.44c-1.04-1.74-1.81-3.66-2.25-5.71h171.9C768.44,365.71,768.98,367.62,769.63,369.42
							z"/>
					</g>
				</g>
			</g>
			<g>
				<g>
					<path class="st16" d="M543.23,450.31l-19.42-5.44c-6.96-1.95-11.02-9.17-9.07-16.13l45.2-161.24
						c1.95-6.96,9.17-11.02,16.13-9.07l19.42,5.44c6.96,1.95,11.02,9.17,9.07,16.13l-45.2,161.24
						C557.41,448.2,550.19,452.26,543.23,450.31z"/>
				</g>
				<g>
					
						<rect x="552.02" y="293.63" transform="matrix(0.9629 0.2699 -0.2699 0.9629 102.0506 -144.1707)" class="st6" width="46.34" height="10.63"/>
				</g>
				<g>
					
						<rect x="547.24" y="310.68" transform="matrix(0.9629 0.2699 -0.2699 0.9629 106.4761 -142.2469)" class="st6" width="46.34" height="10.63"/>
				</g>
			</g>
		</g>
	</g>
</g>
<g>
	<g class="st21">
		<g>
			<ellipse class="st3" cx="593.19" cy="433.69" rx="91.9" ry="18.76"/>
		</g>
	</g>
	<g class="st21">
		<g>
			<ellipse class="st3" cx="435.73" cy="429.14" rx="54.19" ry="16.49"/>
		</g>
	</g>
	<g class="st21">
		<g>
			<ellipse class="st3" cx="232.96" cy="429.14" rx="134.13" ry="21.03"/>
		</g>
	</g>
	<g>
		<g>
			<ellipse class="st12" cx="437.13" cy="132.98" rx="28.47" ry="25.02"/>
			<rect x="429.66" y="175.04" class="st7" width="15.21" height="12.56"/>
			<path class="st13" d="M412.57,132.06l3.9,27.47c1.83,10.05,10.58,17.36,20.8,17.36h0c10.22,0,18.97-7.31,20.8-17.36l5.47-30
				l-26.4-9.18L412.57,132.06z"/>
			<path class="st13" d="M416.22,158.06c-2.64-0.52-5.15-2.34-6.37-4.75c-0.83-1.63-1.13-3.6-0.44-5.29s3.42-2.94,5.22-2.65
				L416.22,158.06z"/>
			<path class="st13" d="M458.22,158.06c2.64-0.52,5.48-2.34,6.7-4.75c0.83-1.63,1.13-3.6,0.44-5.29s-3.03-2.99-4.83-2.7
				L458.22,158.06z"/>
			<polygon class="st13" points="420.48,414.08 426.31,414.08 431.16,337.87 416.47,337.87 			"/>
			<path class="st13" d="M481.12,296.34c-1.62,4.65-3.95,8.78-7.85,9.75c-0.72,0.18-1.54,0.23-2.11-0.35
				c-0.77-0.78-0.71-2.28-0.57-3.54c0.79-7.2,2.01-8.86,3.63-15.85c0.25-1.09,8.41-1.87,9.03-0.25
				C484.04,288.2,482.37,292.72,481.12,296.34z"/>
			<polygon class="st13" points="447.92,337.87 452.99,414.08 459.24,414.08 463.53,337.87 			"/>
			<path class="st11" d="M470.28,289.77h-33.18h-6.38h-21.95c0,0,3.68,48.05,3.79,48.09c12.63,5.39,22.02,0,22.02,0l2.31-24.22h5.51
				l2.25,24.22c0,0,13.36,6.08,21.83,0C466.69,337.73,470.28,289.77,470.28,289.77z"/>
			<path class="st13" d="M474.42,239.08c0.51,2.61,0.37,8.21,1.75,10.3c1.38,2.09,4.37,0.59,6.43,0.35c2.15-0.26,6.2-1.27,7.01-3.78
				c0.81-2.52-0.43-6.65-0.9-9.14c-0.54-2.85-1.48-5.91-2.16-8.72c-0.31-1.28-0.74-2.65-1.64-3.36c-0.71-0.56-1.58-0.59-2.39-0.54
				c-2.37,0.14-6.89,0.64-8.44,3.21C472.51,229.97,473.84,236.12,474.42,239.08z"/>
			<path class="st9" d="M444.83,183.22c-6.97,8.21-15.18,0-15.18,0c-7.67,0.04-13.71,0.26-20.37,3.25l-1.53,103.31
				c0,0,33.98,9.64,62.44,0c2-0.68-0.69-100.09-0.69-100.09C462.38,186.47,453.89,183.03,444.83,183.22z"/>
			<path class="st9" d="M482.95,198.19c-3.58-4.41-8.72-7.29-16.11-9.19c0,0,5.98,43.63,6.08,43.66c6.76,2.44,22.02,0.22,21.76-5.57
				C494.41,220.88,482.95,198.19,482.95,198.19z"/>
			<path class="st12" d="M460.09,120.97c-10.38-1-20.76-2-31.14-3c-4.55-0.44-6.74,0.99-11.1,2.39c-4.36,1.4-6.48,3.92-6.66,8.49
				c-0.12,3.1-0.68,15.91,2.75,16.53c-1.15-6.89-1.38-16.99,11.09-17.01c5.32-0.01,9.62,6.02,14.85,5.08
				c3.42-0.62,6.02-3.68,9.45-4.27c3.83-0.65,7.58,2.11,9.35,5.57c1.77,3.46,1.9,6.53,2.09,10.41c1.56-5.67,2.81-10.17,4.36-15.84
				L460.09,120.97z"/>
			<path class="st13" d="M489.91,244.82c0.24-3.1-0.64-4.16-3.54-4.76c-2.26-0.47-2.35-1.15-4.61-1.66
				c-1.91-0.44-4.12-0.45-5.57,1.23c-1.46,1.7-1.58,6.12-1.62,8.6c-0.2,12.9-0.43,24.14-0.63,37.04c-0.02,1.28-0.02,2.67,0.58,3.7
				c1.38,2.37,4.46,1.29,6.37,0.75c2.25-0.64,2.24-2.19,2.8-4.84c1.51-7.13,2.8-14.33,3.75-21.6
				C487.95,259.31,489.6,248.8,489.91,244.82z"/>
			<path class="st13" d="M336.19,208.28c-3.84-3.07-6.96-6.65-6.57-10.65c0.07-0.74,0.3-1.53,1.03-1.87
				c0.99-0.46,2.38,0.09,3.52,0.64c6.52,3.15,7.68,4.85,13.73,8.71c0.95,0.6-1.05,8.55-2.78,8.59
				C342.88,213.74,339.17,210.67,336.19,208.28z"/>
			<path class="st13" d="M393.72,227.49c-1.74,2.01-5.19,5.94-7.43,7.07c-2.24,1.13-5.61-3.55-7.27-4.79
				c-1.74-1.29-4.74-4.18-4.19-6.76c0.55-2.59,3.68-5.56,5.33-7.48c1.89-2.21,4.22-4.39,6.21-6.49c0.91-0.95,1.96-1.93,3.09-2.1
				c0.9-0.13,1.67,0.27,2.35,0.72c1.98,1.3,8.92,5.53,8.99,8.52C400.86,219.19,395.69,225.21,393.72,227.49z"/>
			<path class="st9" d="M409.28,186.47c5.3-2.05,14.21,3.99,21.57,6.01c0,0-32.38,30.14-32.47,30.12
				c-7.08-1.25-19.57-11.02-16.46-15.92C385.23,201.43,409.28,186.47,409.28,186.47z"/>
			<path class="st13" d="M383.39,234.14c2.85,1.26,2.69,0.71,4.22-1.83c1.2-1.98,1.87-1.83,3.11-3.79c1.05-1.66,1.8-3.73,0.7-5.66
				c-1.11-1.95-5.24-3.54-7.56-4.4c-12.09-4.49-22.62-8.46-34.71-12.95c-1.2-0.45-2.51-0.91-3.68-0.69
				c-2.69,0.51-2.71,3.78-2.83,5.75c-0.15,2.34,1.31,2.84,3.62,4.25c6.22,3.8,12.58,7.42,19.11,10.74
				C368.93,227.38,379.74,232.52,383.39,234.14z"/>
			<polygon class="st22" points="436.9,313.65 434.59,337.87 444.66,337.87 442.41,313.65 			"/>
			<path class="st8" d="M403.98,429.25c-1.05,1.13-2.18,2.57-1.78,4.06c0.35,1.27,1.68,1.99,2.93,2.4
				c6.69,2.19,14.69-0.8,18.32-6.83c2.81-4.68,2.99-10.42,2.99-15.88c0-0.45-6.05-0.08-6.78,0.21c-1.6,0.63-2.6,1.91-3.75,3.14
				C411.91,420.62,407.96,424.95,403.98,429.25z"/>
			<path class="st8" d="M474.87,429.25c1.05,1.13,2.18,2.57,1.78,4.06c-0.35,1.27-1.68,1.99-2.93,2.4
				c-6.69,2.19-14.69-0.8-18.32-6.83c-2.81-4.68-2.99-10.42-2.99-15.88c0-0.45,6.05-0.08,6.78,0.21c1.6,0.63,2.6,1.91,3.75,3.14
				C466.94,420.62,470.89,424.95,474.87,429.25z"/>
		</g>
		<g>
			<g>
				<g>
					<g>
						<g>
							<g>
								<path class="st4" d="M369.32,139.8C356.09,68.9,287.9,22.15,217.01,35.38C146.12,48.61,99.37,116.8,112.59,187.69
									c10.34,55.43,35.32,86.65,81.94,112.86c21.33,11.99,42.85,88.22,42.85,88.22l88.04-16.43c0,0-11.13-76.38,4.35-95.33
									C360.98,238.85,379.66,195.22,369.32,139.8z"/>
							</g>
						</g>
					</g>
					<g>
						<g>
							<g>
								<path class="st5" d="M292.1,435.62L292.1,435.62c-24.54,4.58-48.14-11.6-52.72-36.14l-2-10.7l88.87-16.58l2,10.7
									C332.83,407.43,316.64,431.04,292.1,435.62z"/>
							</g>
						</g>
					</g>
					<g>
						<g>
							<g>
								
									<rect x="262.21" y="230.34" transform="matrix(0.984 -0.178 0.178 0.984 -50.217 52.511)" class="st23" width="10.6" height="151.51"/>
							</g>
						</g>
					</g>
					<g>
						<g>
							<g>
								<path class="st23" d="M256.08,242.52c-1.29,0.24-2.68,0-3.87-0.77l-65.93-43.05c-2.45-1.6-3.14-4.89-1.54-7.34
									c1.6-2.45,4.89-3.14,7.34-1.54l65.93,43.05c2.45,1.6,3.14,4.89,1.54,7.34C258.72,241.47,257.45,242.27,256.08,242.52z"/>
							</g>
						</g>
					</g>
					<g>
						<g>
							<g>
								<path class="st23" d="M256.08,242.52c-1.37,0.26-2.85-0.03-4.07-0.91c-2.38-1.71-2.92-5.02-1.21-7.4l45.97-63.92
									c1.71-2.38,5.02-2.92,7.4-1.21c2.38,1.71,2.92,5.02,1.21,7.4l-45.97,63.92C258.58,241.56,257.37,242.28,256.08,242.52z"/>
							</g>
						</g>
					</g>
					<g>
						<g>
							<g>
								<path class="st23" d="M302.07,178.25l-112.58,21c-2.88,0.54-5.65-1.36-6.18-4.24c-0.54-2.88,1.36-5.65,4.24-6.18l112.58-21
									c2.88-0.54,5.65,1.36,6.18,4.24C306.84,174.95,304.95,177.72,302.07,178.25z"/>
							</g>
						</g>
					</g>
				</g>
			</g>
		</g>
		<g>
			<g>
				<path class="st6" d="M659,352.67H520.23c-2.48,0-4.48-2.06-4.48-4.61v-25.52c0-2.55,2.01-4.61,4.48-4.61H659"/>
				<path class="st17" d="M660.84,355.75H520.35c-4.24,0-7.69-3.44-7.69-7.69v-25.52c0-4.24,3.44-7.69,7.69-7.69h140.49
					c1.7,0,3.07,1.38,3.07,3.07l0,0c0,1.7-1.38,3.07-3.07,3.07H520.35c-0.85,0-1.54,0.69-1.54,1.54v25.52
					c0,0.85,0.69,1.54,1.54,1.54h140.49c1.7,0,3.07,1.38,3.07,3.07l0,0C663.92,354.37,662.54,355.75,660.84,355.75z"/>
				<rect x="518.82" y="328.39" class="st4" width="140.18" height="4.61"/>
				<rect x="518.82" y="337.61" class="st4" width="140.18" height="4.61"/>
			</g>
			<g>
				<path class="st18" d="M672.22,433.83H533.45c-2.48,0-4.48-2.06-4.48-4.61v-25.52c0-2.55,2.01-4.61,4.48-4.61h138.77"/>
				<path class="st19" d="M674.06,436.91H533.57c-4.24,0-7.69-3.44-7.69-7.69v-25.52c0-4.24,3.44-7.69,7.69-7.69h140.49
					c1.7,0,3.07,1.38,3.07,3.07l0,0c0,1.7-1.38,3.07-3.07,3.07H533.57c-0.85,0-1.54,0.69-1.54,1.54v25.52
					c0,0.85,0.69,1.54,1.54,1.54h140.49c1.7,0,3.07,1.38,3.07,3.07v0C677.14,435.53,675.76,436.91,674.06,436.91z"/>
				<rect x="532.04" y="409.55" class="st20" width="140.18" height="4.61"/>
				<rect x="532.04" y="418.77" class="st20" width="140.18" height="4.61"/>
			</g>
			<g>
				<path class="st6" d="M506.21,393.25h138.77c2.48,0,4.48-2.06,4.48-4.61v-25.52c0-2.55-2.01-4.61-4.48-4.61H506.21"/>
				<path class="st5" d="M504.37,396.33h140.49c4.24,0,7.69-3.44,7.69-7.69v-25.52c0-4.24-3.44-7.69-7.69-7.69H504.37
					c-1.7,0-3.07,1.38-3.07,3.07l0,0c0,1.7,1.38,3.07,3.07,3.07h140.49c0.85,0,1.54,0.69,1.54,1.54v25.52
					c0,0.85-0.69,1.54-1.54,1.54H504.37c-1.7,0-3.07,1.38-3.07,3.07l0,0C501.29,394.95,502.67,396.33,504.37,396.33z"/>
				
					<rect x="506.21" y="368.97" transform="matrix(-1 -1.224647e-16 1.224647e-16 -1 1152.6062 742.5472)" class="st3" width="140.18" height="4.61"/>
				
					<rect x="506.21" y="378.19" transform="matrix(-1 -1.224647e-16 1.224647e-16 -1 1152.6062 760.9922)" class="st3" width="140.18" height="4.61"/>
			</g>
		</g>
		<g>
			<g>
				<g>
					<path class="st15" d="M651.91,314.5H526.14c-7.02,0-12.72-5.69-12.72-12.72v0h151.21v0
						C664.63,308.81,658.94,314.5,651.91,314.5z"/>
				</g>
				<g>
					<path class="st17" d="M603.44,307.58h-28.83c-3.2,0-5.79-2.59-5.79-5.79l0,0h40.42l0,0
						C609.23,304.98,606.64,307.58,603.44,307.58z"/>
				</g>
			</g>
			<g>
				<g>
					<path class="st16" d="M654.86,301.82l-131.71-0.07l0.03-59.92c0.01-12.17,9.88-22.04,22.05-22.03l87.62,0.05
						c12.17,0.01,22.04,9.88,22.03,22.05L654.86,301.82z"/>
				</g>
				<g>
					<path class="st6" d="M533.05,291.86l0.03-60.77c0-0.78,0.63-1.41,1.41-1.41l109.1,0.06c0.78,0,1.41,0.63,1.41,1.41l-0.03,60.77
						L533.05,291.86z"/>
				</g>
				
					<ellipse transform="matrix(0.9239 -0.3827 0.3827 0.9239 -54.9089 245.3264)" class="st16" cx="589.21" cy="260.69" rx="24.63" ry="24.63"/>
				<polygon class="st6" points="577.85,274.71 577.85,246.66 605.89,260.8 				"/>
			</g>
		</g>
	</g>
</g>
</svg>
